<svg width="100%" height="100%" viewBox="0 0 32 32" fit="" preserveAspectRatio="xMidYMid meet" focusable="false" xmlns="http://www.w3.org/2000/svg"><path d="M7.45 14.456v5.976l4.205-2.836a4.67 4.67 0 0 0 1.275 1.87l-4.34 2.928 6.342 3.898v-5.774a4.673 4.673 0 0 0 2.264-.016v5.787l3.355-2.07L21.6 26l-5.534 3.25L5.19 22.866v-8.41h2.26zM20.4 17.62l3.77 2.544a2.656 2.656 0 1 1-1.212 1.913l-3.843-2.593A4.67 4.67 0 0 0 20.4 17.62zm5.196 3.724a1.063 1.063 0 1 0 0 2.125 1.063 1.063 0 0 0 0-2.13zm-9.563-8.02a2.663 2.663 0 1 1 0 5.327 2.663 2.663 0 0 1 0-5.32zm.032-10.574L26.94 9.134v8.452h-2.264v-6.04l-4.253 2.87a4.667 4.667 0 0 0-1.26-1.882l4.356-2.938L17.2 5.71v5.765a4.67 4.67 0 0 0-2.265-.017v-5.75L11.36 7.905l-1.063-1.77 5.765-3.384zm-9.72 4.188a2.656 2.656 0 0 1 2.636 2.98l3.91 2.633a4.666 4.666 0 0 0-1.25 1.89l-3.86-2.6a2.656 2.656 0 1 1-1.43-4.89zm0 1.593a1.062 1.062 0 1 0 0 2.13 1.062 1.062 0 0 0 0-2.12z" fill="var(--cm-sys-color-logo-blue-deep-tone, #3367d6)" fill-rule="evenodd"></path></svg>