<svg width="18" height="18" viewBox="0 0 18 18" fill="none" xmlns="http://www.w3.org/2000/svg">
<path d="M9 7H14V5H9V7ZM9 13H14V11H9V13ZM6 8C6.55 8 7.02083 7.80417 7.4125 7.4125C7.80417 7.02083 8 6.55 8 6C8 5.45 7.80417 4.97917 7.4125 4.5875C7.02083 4.19583 6.55 4 6 4C5.45 4 4.97917 4.19583 4.5875 4.5875C4.19583 4.97917 4 5.45 4 6C4 6.55 4.19583 7.02083 4.5875 7.4125C4.97917 7.80417 5.45 8 6 8ZM6 14C6.55 14 7.02083 13.8042 7.4125 13.4125C7.80417 13.0208 8 12.55 8 12C8 11.45 7.80417 10.9792 7.4125 10.5875C7.02083 10.1958 6.55 10 6 10C5.45 10 4.97917 10.1958 4.5875 10.5875C4.19583 10.9792 4 11.45 4 12C4 12.55 4.19583 13.0208 4.5875 13.4125C4.97917 13.8042 5.45 14 6 14ZM2 18C1.45 18 0.979167 17.8042 0.5875 17.4125C0.195833 17.0208 0 16.55 0 16V2C0 1.45 0.195833 0.979167 0.5875 0.5875C0.979167 0.195833 1.45 0 2 0H16C16.55 0 17.0208 0.195833 17.4125 0.5875C17.8042 0.979167 18 1.45 18 2V16C18 16.55 17.8042 17.0208 17.4125 17.4125C17.0208 17.8042 16.55 18 16 18H2ZM2 16H16V2H2V16Z" fill="#F9AB00"/>
</svg>
