<svg width="20" height="20" viewBox="0 0 20 20" fill="none" xmlns="http://www.w3.org/2000/svg">
<path fill-rule="evenodd" clip-rule="evenodd" d="M5.60938 9.02344V11.2151C5.95482 11.8106 6.44495 12.3094 7.03437 12.6651V9.02344H5.60938Z" fill="#AECBFA"/>
<path fill-rule="evenodd" clip-rule="evenodd" d="M8.24219 7.00781V13.2828C8.54889 13.322 8.85805 13.3387 9.16719 13.3328C9.44469 13.3502 9.72301 13.3502 10.0005 13.3328V7.00781H8.24219Z" fill="#669DF6"/>
<path fill-rule="evenodd" clip-rule="evenodd" d="M11.3672 9.88281V12.6245C11.9598 12.2465 12.4471 11.7248 12.7839 11.1078V9.88281H11.3672Z" fill="#AECBFA"/>
<path fill-rule="evenodd" clip-rule="evenodd" d="M14.7845 13.5972L13.6011 14.7806C13.5679 14.8132 13.5415 14.8521 13.5234 14.895C13.5054 14.9379 13.4961 14.984 13.4961 15.0306C13.4961 15.0771 13.5054 15.1232 13.5234 15.1662C13.5415 15.2091 13.5679 15.248 13.6011 15.2806L16.5511 18.2306C16.6166 18.2952 16.705 18.3314 16.797 18.3314C16.889 18.3314 16.9773 18.2952 17.0428 18.2306L18.2345 17.0389C18.2991 16.9734 18.3353 16.8851 18.3353 16.7931C18.3353 16.7011 18.2991 16.6127 18.2345 16.5472L15.2845 13.5972C15.2519 13.564 15.213 13.5376 15.1701 13.5195C15.1271 13.5015 15.081 13.4922 15.0345 13.4922C14.9879 13.4922 14.9418 13.5015 14.8989 13.5195C14.856 13.5376 14.8171 13.564 14.7845 13.5972Z" fill="#4285F4"/>
<path fill-rule="evenodd" clip-rule="evenodd" d="M9.16797 1.66406C7.68461 1.66406 6.23456 2.10393 5.0012 2.92804C3.76783 3.75215 2.80653 4.92349 2.23888 6.29394C1.67122 7.66438 1.52269 9.17238 1.81208 10.6272C2.10147 12.0821 2.81578 13.4185 3.86467 14.4674C4.91356 15.5163 6.24994 16.2306 7.70479 16.52C9.15965 16.8093 10.6677 16.6608 12.0381 16.0932C13.4085 15.5255 14.5799 14.5642 15.404 13.3308C16.2281 12.0975 16.668 10.6474 16.668 9.16406C16.668 8.17915 16.474 7.20388 16.0971 6.29394C15.7202 5.38399 15.1677 4.5572 14.4713 3.86076C13.7748 3.16432 12.948 2.61188 12.0381 2.23497C11.1282 1.85806 10.1529 1.66406 9.16797 1.66406ZM9.16797 14.7391C8.0677 14.7374 6.99259 14.4097 6.07844 13.7974C5.16428 13.1851 4.45208 12.3157 4.03179 11.2988C3.61149 10.282 3.50196 9.1634 3.71701 8.08435C3.93207 7.0053 4.46207 6.01418 5.24008 5.23617C6.01809 4.45816 7.00921 3.92816 8.08826 3.7131C9.16731 3.49805 10.2859 3.60758 11.3027 4.02788C12.3196 4.44817 13.189 5.16037 13.8013 6.07453C14.4137 6.98868 14.7413 8.06379 14.743 9.16406C14.7441 9.89649 14.6006 10.6219 14.3208 11.2988C14.0411 11.9757 13.6304 12.5907 13.1125 13.1086C12.5946 13.6265 11.9796 14.0371 11.3027 14.3169C10.6258 14.5967 9.9004 14.7402 9.16797 14.7391Z" fill="#669DF6"/>
</svg>
