<svg width="16" height="16" viewBox="0 0 16 16" fill="none" xmlns="http://www.w3.org/2000/svg">
<path d="M5.9987 10.6641H10.332C10.7987 10.6641 11.1931 10.503 11.5154 10.1807C11.8376 9.85851 11.9987 9.46406 11.9987 8.9974C11.9987 8.53073 11.8376 8.13628 11.5154 7.81406C11.1931 7.49184 10.7987 7.33073 10.332 7.33073H10.2987C10.2098 6.76406 9.96259 6.28906 9.55703 5.90573C9.15148 5.5224 8.66536 5.33073 8.0987 5.33073C7.63203 5.33073 7.1987 5.4474 6.7987 5.68073C6.3987 5.91406 6.0987 6.24184 5.8987 6.66406H5.81536C5.29314 6.66406 4.85981 6.86406 4.51536 7.26406C4.17092 7.66406 3.9987 8.13073 3.9987 8.66406C3.9987 9.21962 4.19314 9.69184 4.58203 10.0807C4.97092 10.4696 5.44314 10.6641 5.9987 10.6641ZM5.9987 9.33073C5.80981 9.33073 5.65148 9.26684 5.5237 9.13906C5.39592 9.01128 5.33203 8.85295 5.33203 8.66406C5.33203 8.47517 5.39592 8.31684 5.5237 8.18906C5.65148 8.06129 5.80981 7.9974 5.9987 7.9974H6.83203V7.83073C6.83203 7.50851 6.94592 7.23351 7.1737 7.00573C7.40148 6.77795 7.67648 6.66406 7.9987 6.66406C8.32092 6.66406 8.59592 6.77795 8.8237 7.00573C9.05148 7.23351 9.16536 7.50851 9.16536 7.83073V8.66406H10.332C10.4209 8.66406 10.4987 8.6974 10.5654 8.76406C10.632 8.83073 10.6654 8.90851 10.6654 8.9974C10.6654 9.08629 10.632 9.16406 10.5654 9.23073C10.4987 9.2974 10.4209 9.33073 10.332 9.33073H5.9987ZM2.66536 13.3307C2.2987 13.3307 1.98481 13.2002 1.7237 12.9391C1.46259 12.678 1.33203 12.3641 1.33203 11.9974V3.9974C1.33203 3.63073 1.46259 3.31684 1.7237 3.05573C1.98481 2.79462 2.2987 2.66406 2.66536 2.66406H13.332C13.6987 2.66406 14.0126 2.79462 14.2737 3.05573C14.5348 3.31684 14.6654 3.63073 14.6654 3.9974V11.9974C14.6654 12.3641 14.5348 12.678 14.2737 12.9391C14.0126 13.2002 13.6987 13.3307 13.332 13.3307H2.66536ZM2.66536 11.9974H13.332V3.9974H2.66536V11.9974Z" fill="#575757"/>
</svg>
