<svg width="20" height="20" viewBox="0 0 20 20" fill="none" xmlns="http://www.w3.org/2000/svg">
<path d="M6.66536 14.9974H13.332V13.3307H6.66536V14.9974ZM6.66536 11.6641H13.332V9.9974H6.66536V11.6641ZM4.9987 18.3307C4.54036 18.3307 4.148 18.1675 3.82161 17.8411C3.49523 17.5148 3.33203 17.1224 3.33203 16.6641V3.33073C3.33203 2.8724 3.49523 2.48003 3.82161 2.15365C4.148 1.82726 4.54036 1.66406 4.9987 1.66406H11.6654L16.6654 6.66406V16.6641C16.6654 17.1224 16.5022 17.5148 16.1758 17.8411C15.8494 18.1675 15.457 18.3307 14.9987 18.3307H4.9987ZM10.832 7.4974V3.33073H4.9987V16.6641H14.9987V7.4974H10.832Z" fill="#669DF6"/>
<path d="M6.66536 14.9974H13.332V13.3307H6.66536V14.9974ZM6.66536 11.6641H13.332V9.9974H6.66536V11.6641Z" fill="#4285F4"/>
</svg>
