<svg width="20" height="20" viewBox="0 0 20 20" fill="none" xmlns="http://www.w3.org/2000/svg">
<g clip-path="url(#clip0_10181_112163)">
<path d="M3.09344 5.09375C3.85266 5.09375 4.46812 4.47814 4.46812 3.71875C4.46812 2.95936 3.85266 2.34375 3.09344 2.34375C2.33422 2.34375 1.71875 2.95936 1.71875 3.71875C1.71875 4.47814 2.33422 5.09375 3.09344 5.09375Z" fill="#4285F4"/>
<path d="M3.09344 11.3281C3.85266 11.3281 4.46812 10.7125 4.46812 9.95312C4.46812 9.19373 3.85266 8.57812 3.09344 8.57812C2.33422 8.57812 1.71875 9.19373 1.71875 9.95312C1.71875 10.7125 2.33422 11.3281 3.09344 11.3281Z" fill="#4285F4"/>
<path d="M3.09344 17.5625C3.85266 17.5625 4.46812 16.9469 4.46812 16.1875C4.46812 15.4281 3.85266 14.8125 3.09344 14.8125C2.33422 14.8125 1.71875 15.4281 1.71875 16.1875C1.71875 16.9469 2.33422 17.5625 3.09344 17.5625Z" fill="#4285F4"/>
<path d="M16.4648 11.6719C17.4141 11.6719 18.1836 10.9024 18.1836 9.95312C18.1836 9.00389 17.4141 8.23438 16.4648 8.23438C15.5156 8.23438 14.7461 9.00389 14.7461 9.95312C14.7461 10.9024 15.5156 11.6719 16.4648 11.6719Z" fill="#AECBFA"/>
<path d="M5.79297 10.7743H8.69969C8.81423 10.5757 8.93861 10.383 9.07234 10.197L9.24625 9.94604C9.06406 9.69504 8.89016 9.43567 8.71625 9.10938H5.79297C5.85628 9.32455 5.89518 9.54629 5.90891 9.77034V10.1217C5.89588 10.3431 5.85696 10.5622 5.79297 10.7743Z" fill="#669DF6"/>
<path d="M11.2503 7.42367L11.0598 7.08064L10.828 6.69578L10.4636 5.96788C9.42016 3.87622 8.34359 2.91406 6.17391 2.91406H5.79297C5.87121 3.18587 5.91026 3.46766 5.90891 3.75072C5.91049 4.03381 5.87144 4.31563 5.79297 4.58739H6.17391C7.51547 4.58739 8.10344 5.01409 8.915 6.49498L9.11375 6.85474L9.3125 7.25634C10.5133 9.68266 11.3828 10.603 13.3952 10.8038C13.3294 10.5299 13.296 10.249 13.2958 9.96713C13.2967 9.68422 13.3357 9.40275 13.4117 9.13046H13.4614C12.4842 9.03843 11.9211 8.61173 11.2503 7.42367Z" fill="#AECBFA"/>
<path d="M9.72656 11.9176L9.52781 12.2941L9.21313 12.9299L9.01437 13.3064L8.82391 13.6494C8.06203 14.9965 7.46578 15.3897 6.17391 15.3897H5.79297C5.85768 15.6045 5.89661 15.8265 5.90891 16.0507V16.3602C5.89591 16.5844 5.857 16.8062 5.79297 17.0212H6.38922C8.385 16.9626 9.46156 15.9921 10.5298 13.9757L10.977 13.0805L11.1509 12.7542L11.3 12.4781C11.4199 12.2691 11.5527 12.0679 11.6975 11.8757C11.1837 11.6816 10.7073 11.3985 10.2897 11.0391C10.0788 11.316 9.89044 11.6098 9.72656 11.9176Z" fill="#669DF6"/>
</g>
<defs>
<clipPath id="clip0_10181_112163">
<rect width="20" height="20" fill="white"/>
</clipPath>
</defs>
</svg>
