<svg width="16" height="16" viewBox="0 0 16 16" fill="none" xmlns="http://www.w3.org/2000/svg">
<path d="M4.78203 7.21406C4.25981 6.69184 3.9987 6.06406 3.9987 5.33073C3.9987 4.5974 4.25981 3.96962 4.78203 3.4474C5.30425 2.92517 5.93203 2.66406 6.66536 2.66406C7.3987 2.66406 8.02648 2.92517 8.5487 3.4474C9.07092 3.96962 9.33203 4.5974 9.33203 5.33073C9.33203 6.06406 9.07092 6.69184 8.5487 7.21406C8.02648 7.73628 7.3987 7.9974 6.66536 7.9974C5.93203 7.9974 5.30425 7.73628 4.78203 7.21406ZM1.33203 13.3307V11.4641C1.33203 11.0974 1.42648 10.753 1.61536 10.4307C1.80425 10.1085 2.06536 9.86406 2.3987 9.6974C2.96536 9.40851 3.60425 9.16406 4.31536 8.96406C5.02648 8.76406 5.80981 8.66406 6.66536 8.66406H6.8987C6.96536 8.66406 7.03203 8.67517 7.0987 8.6974C7.00981 8.8974 6.93481 9.10573 6.8737 9.3224C6.81259 9.53906 6.76536 9.76406 6.73203 9.9974H6.66536C5.87648 9.9974 5.16814 10.0974 4.54036 10.2974C3.91259 10.4974 3.3987 10.6974 2.9987 10.8974C2.8987 10.953 2.81814 11.0307 2.75703 11.1307C2.69592 11.2307 2.66536 11.3418 2.66536 11.4641V11.9974H6.86537C6.93203 12.2307 7.02092 12.4613 7.13203 12.6891C7.24314 12.9168 7.36537 13.1307 7.4987 13.3307H1.33203ZM10.6654 13.9974L10.4654 12.9974C10.332 12.9418 10.207 12.8835 10.0904 12.8224C9.9737 12.7613 9.85425 12.6863 9.73203 12.5974L8.76537 12.8974L8.0987 11.7641L8.86537 11.0974C8.84314 10.9418 8.83203 10.7974 8.83203 10.6641C8.83203 10.5307 8.84314 10.3863 8.86537 10.2307L8.0987 9.56406L8.76537 8.43073L9.73203 8.73073C9.85425 8.64184 9.9737 8.56684 10.0904 8.50573C10.207 8.44462 10.332 8.38628 10.4654 8.33073L10.6654 7.33073H11.9987L12.1987 8.33073C12.332 8.38628 12.457 8.4474 12.5737 8.51406C12.6904 8.58073 12.8098 8.66406 12.932 8.76406L13.8987 8.43073L14.5654 9.5974L13.7987 10.2641C13.8209 10.3974 13.832 10.5363 13.832 10.6807C13.832 10.8252 13.8209 10.9641 13.7987 11.0974L14.5654 11.7641L13.8987 12.8974L12.932 12.5974C12.8098 12.6863 12.6904 12.7613 12.5737 12.8224C12.457 12.8835 12.332 12.9418 12.1987 12.9974L11.9987 13.9974H10.6654ZM12.2737 11.6057C12.5348 11.3446 12.6654 11.0307 12.6654 10.6641C12.6654 10.2974 12.5348 9.98351 12.2737 9.7224C12.0126 9.46128 11.6987 9.33073 11.332 9.33073C10.9654 9.33073 10.6515 9.46128 10.3904 9.7224C10.1293 9.98351 9.9987 10.2974 9.9987 10.6641C9.9987 11.0307 10.1293 11.3446 10.3904 11.6057C10.6515 11.8668 10.9654 11.9974 11.332 11.9974C11.6987 11.9974 12.0126 11.8668 12.2737 11.6057ZM7.60703 6.2724C7.86814 6.01128 7.9987 5.6974 7.9987 5.33073C7.9987 4.96406 7.86814 4.65017 7.60703 4.38906C7.34592 4.12795 7.03203 3.9974 6.66536 3.9974C6.2987 3.9974 5.98481 4.12795 5.7237 4.38906C5.46259 4.65017 5.33203 4.96406 5.33203 5.33073C5.33203 5.6974 5.46259 6.01128 5.7237 6.2724C5.98481 6.53351 6.2987 6.66406 6.66536 6.66406C7.03203 6.66406 7.34592 6.53351 7.60703 6.2724Z" fill="#575757"/>
</svg>
