<svg width="16" height="16" viewBox="0 0 16 16" fill="none" xmlns="http://www.w3.org/2000/svg">
<path d="M2.01562 11.3359V4.66927C2.01562 4.3026 2.14618 3.98872 2.40729 3.7276C2.6684 3.46649 2.98229 3.33594 3.34896 3.33594H12.6656C13.0323 3.33594 13.3462 3.46649 13.6073 3.7276C13.8684 3.98872 13.999 4.3026 13.999 4.66927V11.3359C13.999 11.7026 13.8684 12.0165 13.6073 12.2776C13.3462 12.5387 13.0323 12.6693 12.6656 12.6693H3.34896C2.98229 12.6693 2.6684 12.5387 2.40729 12.2776C2.14618 12.0165 2.01562 11.7026 2.01562 11.3359ZM3.33229 11.3359H5.54896V4.66927H3.33229V11.3359ZM6.88229 11.3359H9.09896V4.66927H6.88229V11.3359ZM10.4323 11.3359H12.649V4.66927H10.4323V11.3359Z" fill="#575757"/>
</svg>
