<svg width="20" height="20" viewBox="0 0 20 20" fill="none" xmlns="http://www.w3.org/2000/svg">
<path d="M9.6495 0.835938C8.7605 0.835938 8.09375 1.50269 8.09375 2.39169C8.09375 2.68802 8.16783 2.98435 8.39008 3.28069L9.05683 2.61394C9.05683 2.53985 9.05683 2.46577 9.05683 2.39169C9.05683 2.02127 9.35317 1.72494 9.72358 1.72494C10.094 1.72494 10.3903 2.02127 10.3903 2.39169C10.3903 2.7621 10.094 3.05844 9.72358 3.05844C9.6495 3.05844 9.57542 3.05844 9.50133 3.05844L8.83458 3.6511C9.57542 4.0956 10.5385 3.94744 10.983 3.2066C11.4275 2.46577 11.2793 1.50269 10.5385 1.05819C10.3163 0.910021 10.0199 0.835938 9.6495 0.835938Z" fill="#D2E3FC"/>
<path d="M9.05575 5.35667C9.05575 4.83808 8.90758 4.3195 8.61125 3.875L7.72225 4.764C7.79633 4.98625 7.87042 5.13442 7.87042 5.35667C7.87042 5.72708 7.72225 6.02342 7.5 6.24567L7.9445 7.431C8.68533 6.9865 9.05575 6.17158 9.05575 5.35667Z" fill="#5E97F6"/>
<path d="M6.6868 6.61823C6.02005 6.61823 5.42739 6.09965 5.42739 5.4329C5.42739 4.76615 5.94597 4.17348 6.61272 4.17348C6.83497 4.17348 7.1313 4.24756 7.35355 4.39573L8.24255 3.58081C7.72397 3.13631 7.20539 2.91406 6.61272 2.91406C5.27922 2.91406 4.16797 4.02531 4.16797 5.35881C4.16797 6.69231 5.20514 7.80356 6.61272 7.80356C6.76089 7.80356 6.98314 7.80356 7.1313 7.72948L6.6868 6.61823Z" fill="#5E97F6"/>
<path d="M9.72233 7.57812C9.20374 7.57812 8.68516 7.65221 8.16658 7.80037L8.83333 9.43021C9.12966 9.43021 9.42599 9.35612 9.72233 9.35612C11.7967 9.35612 13.4265 11.06 13.4265 13.0603C13.4265 15.1346 11.7226 16.7645 9.72233 16.7645C7.64799 16.7645 6.01816 15.0605 6.01816 13.0603C6.01816 11.6527 6.75899 10.3933 8.01841 9.80063L7.35166 8.17079C4.61058 9.50429 3.49933 12.838 4.83283 15.505C6.16633 18.2461 9.50008 19.3574 12.1671 18.0239C14.9082 16.6904 16.0194 13.3566 14.6859 10.6896C13.7228 8.83754 11.7967 7.57812 9.72233 7.57812Z" fill="#4285F4"/>
</svg>
