<svg width="16" height="16" viewBox="0 0 16 16" fill="none" xmlns="http://www.w3.org/2000/svg">
<path d="M6.53203 9.66927H7.5987L8.13203 8.13594H10.5654L11.0987 9.66927H12.132L9.86536 3.66927H8.7987L6.53203 9.66927ZM8.43203 7.26927L9.2987 4.76927H9.36536L10.232 7.26927H8.43203ZM5.33203 12.0026C4.96536 12.0026 4.65148 11.872 4.39036 11.6109C4.12925 11.3498 3.9987 11.0359 3.9987 10.6693V2.66927C3.9987 2.3026 4.12925 1.98872 4.39036 1.7276C4.65148 1.46649 4.96536 1.33594 5.33203 1.33594H13.332C13.6987 1.33594 14.0126 1.46649 14.2737 1.7276C14.5348 1.98872 14.6654 2.3026 14.6654 2.66927V10.6693C14.6654 11.0359 14.5348 11.3498 14.2737 11.6109C14.0126 11.872 13.6987 12.0026 13.332 12.0026H5.33203ZM5.33203 10.6693H13.332V2.66927H5.33203V10.6693ZM2.66536 14.6693C2.2987 14.6693 1.98481 14.5387 1.7237 14.2776C1.46259 14.0165 1.33203 13.7026 1.33203 13.3359V4.0026H2.66536V13.3359H11.9987V14.6693H2.66536Z" fill="#575757"/>
</svg>
