<svg width="20" height="20" viewBox="0 0 20 20" fill="none" xmlns="http://www.w3.org/2000/svg">
<path d="M2.33984 7.80677L4.32318 4.27344H6.87318V5.83177H5.21484L4.11484 7.78177L4.78984 8.9151L3.46484 9.6901L2.33984 7.80677Z" fill="#4285F4"/>
<path d="M12.082 10.8953L14.1654 9.69531L16.2487 10.8953V13.3036L14.1654 14.5036L12.082 13.3036V10.8953Z" fill="#AECBFA"/>
<path d="M3.75 10.8953L5.83333 9.69531L7.91667 10.8953V13.3036L5.83333 14.5036L3.75 13.3036V10.8953Z" fill="#AECBFA"/>
<path d="M7.91406 3.825L9.9974 2.625L12.0807 3.825V6.225L9.9974 7.43333L7.91406 6.225V3.825Z" fill="#AECBFA"/>
<path d="M14.1641 9.69531L16.2474 10.8953V13.3036L14.1641 14.5036V9.69531Z" fill="#4285F4"/>
<path d="M5.83203 9.69531L7.91536 10.8953V13.3036L5.83203 14.5036V9.69531Z" fill="#4285F4"/>
<path d="M10 2.625L12.0833 3.825V6.225L10 7.43333V2.625Z" fill="#4285F4"/>
<path d="M15.2083 8.9151L15.8833 7.7901L14.7833 5.83177H13.125V4.27344H15.675L17.6583 7.80677L16.5333 9.6901L15.2083 8.9151Z" fill="#4285F4"/>
<path d="M8.00677 17.2937L6.77344 15.2438L8.10677 14.4688L8.88177 15.7354H11.0901L11.8734 14.4688L13.2068 15.2354L11.9651 17.2937H8.00677Z" fill="#4285F4"/>
</svg>
