<svg width="16" height="16" viewBox="0 0 16 16" fill="none" xmlns="http://www.w3.org/2000/svg">
<path d="M1.33203 13.3307V6.66406C1.33203 6.2974 1.46259 5.98351 1.7237 5.7224C1.98481 5.46128 2.2987 5.33073 2.66536 5.33073H4.66536V3.9974C4.66536 3.63073 4.79592 3.31684 5.05703 3.05573C5.31814 2.79462 5.63203 2.66406 5.9987 2.66406H9.9987C10.3654 2.66406 10.6793 2.79462 10.9404 3.05573C11.2015 3.31684 11.332 3.63073 11.332 3.9974V5.33073H13.332C13.6987 5.33073 14.0126 5.46128 14.2737 5.7224C14.5348 5.98351 14.6654 6.2974 14.6654 6.66406V13.3307H1.33203ZM5.33203 9.9974V10.6641H3.9987V9.9974H2.66536V11.9974H13.332V9.9974H11.9987V10.6641H10.6654V9.9974H5.33203ZM2.66536 6.66406V8.66406H3.9987V7.9974H5.33203V8.66406H10.6654V7.9974H11.9987V8.66406H13.332V6.66406H2.66536ZM5.9987 5.33073H9.9987V3.9974H5.9987V5.33073Z" fill="#575757"/>
</svg>
