<svg width="20" height="20" viewBox="0 0 20 20" fill="none" xmlns="http://www.w3.org/2000/svg">
<path d="M16.6667 11.5748C16.5674 11.4555 16.4282 11.3763 16.275 11.3518C16.1218 11.3273 15.9649 11.3591 15.8333 11.4414L10 15.7248V15.9081C10.0842 15.8981 10.1695 15.9061 10.2503 15.9315C10.3312 15.9569 10.4058 15.9991 10.4691 16.0554C10.5325 16.1117 10.5832 16.1808 10.6179 16.2581C10.6526 16.3354 10.6706 16.4192 10.6706 16.5039C10.6706 16.5887 10.6526 16.6725 10.6179 16.7498C10.5832 16.8271 10.5325 16.8962 10.4691 16.9524C10.4058 17.0087 10.3312 17.051 10.2503 17.0764C10.1695 17.1017 10.0842 17.1097 10 17.0998C10.1353 17.1004 10.2671 17.0564 10.375 16.9748L16.55 12.4164C16.6703 12.3155 16.7489 12.1736 16.7704 12.0181C16.792 11.8625 16.755 11.7045 16.6667 11.5748Z" fill="#669DF6"/>
<path d="M9.99919 17.1024C9.8533 17.0851 9.71883 17.0149 9.62125 16.9051C9.52367 16.7953 9.46978 16.6535 9.46978 16.5066C9.46978 16.3597 9.52367 16.2179 9.62125 16.108C9.71883 15.9982 9.8533 15.928 9.99919 15.9107V15.7274L4.16585 11.4441C4.03484 11.36 3.87746 11.3271 3.72374 11.3517C3.57003 11.3763 3.43076 11.4566 3.33252 11.5774C3.24466 11.7072 3.20954 11.8656 3.23431 12.0204C3.25908 12.1752 3.34187 12.3148 3.46585 12.4107L9.64085 16.9691C9.74619 17.0496 9.87494 17.0935 10.0075 17.0941L9.99919 17.1024Z" fill="#AECBFA"/>
<path d="M9.99844 15.2812C9.75616 15.2812 9.51931 15.3531 9.31786 15.4877C9.11641 15.6223 8.9594 15.8136 8.86669 16.0375C8.77397 16.2613 8.74971 16.5076 8.79698 16.7452C8.84424 16.9829 8.96091 17.2011 9.13223 17.3725C9.30355 17.5438 9.52183 17.6604 9.75945 17.7077C9.99708 17.755 10.2434 17.7307 10.4672 17.638C10.6911 17.5453 10.8824 17.3883 11.017 17.1868C11.1516 16.9854 11.2234 16.7485 11.2234 16.5062C11.2234 16.1814 11.0944 15.8698 10.8646 15.64C10.6349 15.4103 10.3233 15.2812 9.99844 15.2812ZM9.99844 17.0979C9.87942 17.0979 9.76309 17.0625 9.66425 16.9962C9.5654 16.9299 9.48851 16.8357 9.44336 16.7256C9.3982 16.6154 9.38682 16.4944 9.41065 16.3778C9.43448 16.2612 9.49246 16.1543 9.57721 16.0707C9.66196 15.9871 9.76964 15.9306 9.88658 15.9084C10.0035 15.8862 10.1244 15.8993 10.2339 15.946C10.3434 15.9927 10.4365 16.0709 10.5014 16.1707C10.5663 16.2704 10.6001 16.3872 10.5984 16.5062C10.5984 16.5847 10.5829 16.6623 10.5526 16.7346C10.5224 16.8069 10.478 16.8725 10.4222 16.9276C10.3664 16.9826 10.3002 17.0261 10.2274 17.0553C10.1547 17.0845 10.0768 17.099 9.99844 17.0979Z" fill="#4285F4"/>
<path d="M5.00026 5.09284C4.83517 5.09068 4.67745 5.02414 4.56071 4.9074C4.44396 4.79065 4.37742 4.63293 4.37526 4.46784V2.90117C4.36503 2.81247 4.37368 2.72261 4.40063 2.63748C4.42758 2.55235 4.47223 2.47389 4.53164 2.40723C4.59106 2.34058 4.66389 2.28724 4.74537 2.25072C4.82685 2.21419 4.91514 2.19531 5.00443 2.19531C5.09372 2.19531 5.182 2.21419 5.26348 2.25072C5.34496 2.28724 5.4178 2.34058 5.47721 2.40723C5.53662 2.47389 5.58127 2.55235 5.60822 2.63748C5.63517 2.72261 5.64382 2.81247 5.63359 2.90117V4.46784C5.6314 4.63436 5.56371 4.79332 5.44517 4.9103C5.32664 5.02727 5.1668 5.09286 5.00026 5.09284Z" fill="#AECBFA"/>
<path d="M4.9849 10.6339C5.33468 10.6339 5.61823 10.3503 5.61823 10.0005C5.61823 9.65074 5.33468 9.36719 4.9849 9.36719C4.63512 9.36719 4.35156 9.65074 4.35156 10.0005C4.35156 10.3503 4.63512 10.6339 4.9849 10.6339Z" fill="#AECBFA"/>
<path d="M4.9849 8.7901C5.33468 8.7901 5.61823 8.50655 5.61823 8.15677C5.61823 7.80699 5.33468 7.52344 4.9849 7.52344C4.63512 7.52344 4.35156 7.80699 4.35156 8.15677C4.35156 8.50655 4.63512 8.7901 4.9849 8.7901Z" fill="#AECBFA"/>
<path d="M4.9849 6.93854C5.33468 6.93854 5.61823 6.65499 5.61823 6.30521C5.61823 5.95543 5.33468 5.67188 4.9849 5.67188C4.63512 5.67188 4.35156 5.95543 4.35156 6.30521C4.35156 6.65499 4.63512 6.93854 4.9849 6.93854Z" fill="#AECBFA"/>
<path d="M15 6.92656C14.8335 6.92437 14.6745 6.85668 14.5575 6.73814C14.4406 6.61961 14.375 6.45977 14.375 6.29323V4.72656C14.375 4.5608 14.4408 4.40183 14.5581 4.28462C14.6753 4.16741 14.8342 4.10156 15 4.10156C15.1658 4.10156 15.3247 4.16741 15.4419 4.28462C15.5592 4.40183 15.625 4.5608 15.625 4.72656V6.29323C15.6261 6.376 15.6108 6.45817 15.5798 6.53497C15.5489 6.61176 15.5031 6.68165 15.4449 6.74057C15.3868 6.79949 15.3175 6.84627 15.2411 6.8782C15.1647 6.91013 15.0828 6.92657 15 6.92656Z" fill="#4285F4"/>
<path d="M15.0161 10.6417C15.3659 10.6417 15.6495 10.3581 15.6495 10.0083C15.6495 9.65855 15.3659 9.375 15.0161 9.375C14.6664 9.375 14.3828 9.65855 14.3828 10.0083C14.3828 10.3581 14.6664 10.6417 15.0161 10.6417Z" fill="#4285F4"/>
<path d="M15.0161 8.76667C15.3659 8.76667 15.6495 8.48311 15.6495 8.13333C15.6495 7.78355 15.3659 7.5 15.0161 7.5C14.6664 7.5 14.3828 7.78355 14.3828 8.13333C14.3828 8.48311 14.6664 8.76667 15.0161 8.76667Z" fill="#4285F4"/>
<path d="M15.0161 3.53229C15.3659 3.53229 15.6495 3.24874 15.6495 2.89896C15.6495 2.54918 15.3659 2.26562 15.0161 2.26562C14.6664 2.26562 14.3828 2.54918 14.3828 2.89896C14.3828 3.24874 14.6664 3.53229 15.0161 3.53229Z" fill="#4285F4"/>
<path d="M10 12.4962C9.83491 12.4941 9.67719 12.4275 9.56045 12.3108C9.4437 12.194 9.37716 12.0363 9.375 11.8712V10.2796C9.3928 10.1252 9.46674 9.98271 9.58275 9.8793C9.69877 9.77589 9.84876 9.71875 10.0042 9.71875C10.1596 9.71875 10.3096 9.77589 10.4256 9.8793C10.5416 9.98271 10.6155 10.1252 10.6333 10.2796V11.8546C10.6344 11.9384 10.6189 12.0217 10.5875 12.0995C10.5562 12.1773 10.5097 12.2481 10.4508 12.3078C10.3919 12.3675 10.3217 12.4149 10.2443 12.4472C10.1669 12.4796 10.0839 12.4962 10 12.4962Z" fill="#669DF6"/>
<path d="M10.0005 14.3448C10.3503 14.3448 10.6339 14.0612 10.6339 13.7115C10.6339 13.3617 10.3503 13.0781 10.0005 13.0781C9.65074 13.0781 9.36719 13.3617 9.36719 13.7115C9.36719 14.0612 9.65074 14.3448 10.0005 14.3448Z" fill="#669DF6"/>
<path d="M10.0005 9.08698C10.3503 9.08698 10.6339 8.80343 10.6339 8.45365C10.6339 8.10387 10.3503 7.82031 10.0005 7.82031C9.65074 7.82031 9.36719 8.10387 9.36719 8.45365C9.36719 8.80343 9.65074 9.08698 10.0005 9.08698Z" fill="#669DF6"/>
<path d="M10.0005 7.23542C10.3503 7.23542 10.6339 6.95186 10.6339 6.60208C10.6339 6.2523 10.3503 5.96875 10.0005 5.96875C9.65074 5.96875 9.36719 6.2523 9.36719 6.60208C9.36719 6.95186 9.65074 7.23542 10.0005 7.23542Z" fill="#669DF6"/>
<path d="M12.5003 8.78034C12.3352 8.77818 12.1775 8.71164 12.0607 8.5949C11.944 8.47815 11.8774 8.32043 11.8753 8.15534V6.58867C11.865 6.49997 11.8737 6.41011 11.9006 6.32498C11.9276 6.23985 11.9722 6.16139 12.0316 6.09473C12.0911 6.02808 12.1639 5.97474 12.2454 5.93822C12.3269 5.90169 12.4151 5.88281 12.5044 5.88281C12.5937 5.88281 12.682 5.90169 12.7635 5.93822C12.845 5.97474 12.9178 6.02808 12.9772 6.09473C13.0366 6.16139 13.0813 6.23985 13.1082 6.32498C13.1352 6.41011 13.1438 6.49997 13.1336 6.58867V8.15534C13.1314 8.32186 13.0637 8.48082 12.9452 8.5978C12.8266 8.71478 12.6668 8.78036 12.5003 8.78034Z" fill="#4285F4"/>
<path d="M12.5083 5.37604C12.8581 5.37604 13.1417 5.09249 13.1417 4.74271C13.1417 4.39293 12.8581 4.10938 12.5083 4.10938C12.1586 4.10938 11.875 4.39293 11.875 4.74271C11.875 5.09249 12.1586 5.37604 12.5083 5.37604Z" fill="#4285F4"/>
<path d="M12.5083 12.462C12.8581 12.462 13.1417 12.1784 13.1417 11.8286C13.1417 11.4789 12.8581 11.1953 12.5083 11.1953C12.1586 11.1953 11.875 11.4789 11.875 11.8286C11.875 12.1784 12.1586 12.462 12.5083 12.462Z" fill="#4285F4"/>
<path d="M12.5083 10.6104C12.8581 10.6104 13.1417 10.3269 13.1417 9.97708C13.1417 9.6273 12.8581 9.34375 12.5083 9.34375C12.1586 9.34375 11.875 9.6273 11.875 9.97708C11.875 10.3269 12.1586 10.6104 12.5083 10.6104Z" fill="#4285F4"/>
<path d="M7.49271 12.462C7.84249 12.462 8.12604 12.1784 8.12604 11.8286C8.12604 11.4789 7.84249 11.1953 7.49271 11.1953C7.14293 11.1953 6.85938 11.4789 6.85938 11.8286C6.85938 12.1784 7.14293 12.462 7.49271 12.462Z" fill="#AECBFA"/>
<path d="M7.49271 7.23542C7.84249 7.23542 8.12604 6.95186 8.12604 6.60208C8.12604 6.2523 7.84249 5.96875 7.49271 5.96875C7.14293 5.96875 6.85938 6.2523 6.85938 6.60208C6.85938 6.95186 7.14293 7.23542 7.49271 7.23542Z" fill="#AECBFA"/>
<path d="M7.49271 5.37604C7.84249 5.37604 8.12604 5.09249 8.12604 4.74271C8.12604 4.39293 7.84249 4.10938 7.49271 4.10938C7.14293 4.10938 6.85938 4.39293 6.85938 4.74271C6.85938 5.09249 7.14293 5.37604 7.49271 5.37604Z" fill="#AECBFA"/>
<path d="M7.50052 10.6057C7.33679 10.6059 7.17938 10.5426 7.0613 10.4292C6.94322 10.3157 6.87365 10.161 6.86719 9.9974V8.41406C6.86719 8.2483 6.93304 8.08933 7.05025 7.97212C7.16746 7.85491 7.32643 7.78906 7.49219 7.78906C7.65795 7.78906 7.81692 7.85491 7.93413 7.97212C8.05134 8.08933 8.11719 8.2483 8.11719 8.41406V9.9974C8.11289 10.1588 8.04629 10.3123 7.93133 10.4257C7.81638 10.5391 7.66199 10.6036 7.50052 10.6057Z" fill="#AECBFA"/>
</svg>
