<svg width="20" height="20" viewBox="0 0 20 20" fill="none" xmlns="http://www.w3.org/2000/svg">
<path fill-rule="evenodd" clip-rule="evenodd" d="M11.1172 10.6333V7H8.88385V10.6333L5.74219 12.45L6.85885 14.3833L10.0005 12.5667L13.1422 14.3833L14.2589 12.45L11.1172 10.6333Z" fill="#669DF6"/>
<path fill-rule="evenodd" clip-rule="evenodd" d="M11.1174 10.6333V7H10.0008V11.2667L6.30078 13.4167L6.85911 14.3833L10.0008 12.5667L13.1424 14.3833L14.2591 12.45L11.1174 10.6333Z" fill="#4285F4"/>
<path fill-rule="evenodd" clip-rule="evenodd" d="M8.87526 2.30469L7.18359 3.32135V6.42969L10.0003 7.95469V5.36302L8.87526 4.84635V2.30469Z" fill="#AECBFA"/>
<path fill-rule="evenodd" clip-rule="evenodd" d="M11.125 4.84635L10 5.36302V7.95469L12.8167 6.42969V3.32135L11.125 2.30469V4.84635Z" fill="#669DF6"/>
<path fill-rule="evenodd" clip-rule="evenodd" d="M15.1185 14.2333L15.0518 15.3917L17.3018 16.6667L15.4852 17.6667L12.7852 16.1083L12.8768 12.9167L15.6018 11.25L18.3352 12.8167V14.8917L16.0935 13.6L15.1185 14.2333Z" fill="#669DF6"/>
<path fill-rule="evenodd" clip-rule="evenodd" d="M4.88464 14.2328L3.90964 13.5995L1.66797 14.8911V12.8161L4.35964 11.2578L7.08464 12.9245L7.1763 16.1161L4.51797 17.6911L2.7013 16.6661L4.9513 15.3661L4.88464 14.2328Z" fill="#669DF6"/>
<path fill-rule="evenodd" clip-rule="evenodd" d="M18.3333 14.8906L18.2917 12.8156L15.6 11.2656L12.875 12.9406L15.1167 14.2323L16.0833 13.599L18.3333 14.8906Z" fill="#AECBFA"/>
<path fill-rule="evenodd" clip-rule="evenodd" d="M1.66797 14.8906L3.91797 13.599L4.88464 14.2323L7.1263 12.9406L4.4013 11.2656L1.70964 12.8156L1.66797 14.8906Z" fill="#AECBFA"/>
</svg>
