<svg width="20" height="20" viewBox="0 0 20 20" fill="none" xmlns="http://www.w3.org/2000/svg">
<path d="M8.77445 9.73435L6.60778 8.42601C6.64015 8.33183 6.65977 8.23373 6.66612 8.13435C6.66776 7.90784 6.602 7.68597 6.47719 7.49695C6.35237 7.30794 6.17416 7.16032 5.96521 7.07288C5.75626 6.98543 5.52602 6.96212 5.30379 7.00591C5.08155 7.04969 4.87736 7.1586 4.7172 7.31876C4.55703 7.47893 4.44813 7.68311 4.40435 7.90535C4.36056 8.12758 4.38387 8.35782 4.47131 8.56677C4.55875 8.77572 4.70637 8.95394 4.89539 9.07875C5.08441 9.20356 5.30628 9.26933 5.53278 9.26768C5.8187 9.26844 6.09368 9.15785 6.29945 8.95934L8.47445 10.2677C8.52082 10.3003 8.57611 10.3177 8.63278 10.3177C8.7002 10.3151 8.76503 10.2911 8.81783 10.2491C8.87063 10.2071 8.90863 10.1493 8.9263 10.0842C8.94398 10.0191 8.94039 9.95003 8.91608 9.8871C8.89176 9.82417 8.84798 9.77065 8.79112 9.73435H8.77445ZM5.51612 8.64268C5.3813 8.64268 5.252 8.58912 5.15667 8.49379C5.06134 8.39846 5.00778 8.26916 5.00778 8.13435C5.00778 7.99953 5.06134 7.87023 5.15667 7.7749C5.252 7.67957 5.3813 7.62601 5.51612 7.62601C5.65093 7.62601 5.78023 7.67957 5.87556 7.7749C5.97089 7.87023 6.02445 7.99953 6.02445 8.13435C6.02445 8.26916 5.97089 8.39846 5.87556 8.49379C5.78023 8.58912 5.65093 8.64268 5.51612 8.64268Z" fill="#669DF6"/>
<path d="M7.66589 15.688C6.53913 15.6929 5.43626 15.3633 4.49699 14.7409C3.55771 14.1185 2.82431 13.2314 2.38968 12.1918C1.95506 11.1522 1.83877 10.007 2.05555 8.90132C2.27234 7.7956 2.81243 6.77911 3.60742 5.98061C4.40241 5.18211 5.41652 4.63755 6.52127 4.4159C7.62602 4.19425 8.77171 4.30549 9.81318 4.73554C10.8547 5.16558 11.7451 5.89507 12.3716 6.8316C12.9981 7.76812 13.3325 8.86953 13.3326 9.9963C13.3282 11.5002 12.7306 12.9416 11.6695 14.0073C10.6085 15.073 9.16972 15.677 7.66589 15.688ZM7.66589 5.56297C6.7867 5.56132 5.9268 5.82063 5.1951 6.30805C4.4634 6.79547 3.8928 7.48908 3.55559 8.30103C3.21838 9.11298 3.12972 10.0067 3.30084 10.8691C3.47195 11.7315 3.89515 12.5237 4.51683 13.1454C5.13851 13.767 5.9307 14.1902 6.79308 14.3614C7.65545 14.5325 8.54921 14.4438 9.36116 14.1066C10.1731 13.7694 10.8667 13.1988 11.3541 12.4671C11.8416 11.7354 12.1009 10.8755 12.0992 9.9963C12.097 8.82119 11.6292 7.69483 10.7983 6.86389C9.96736 6.03296 8.841 5.56517 7.66589 5.56297Z" fill="#AECBFA"/>
<path d="M16.477 12.9531C16.1459 12.9531 15.824 13.0614 15.5603 13.2614L10.7603 10.5114C10.8022 10.3449 10.8273 10.1746 10.8353 10.0031C10.83 9.83186 10.8077 9.66158 10.7686 9.49477L15.5686 6.74477C15.8323 6.94483 16.1543 7.05311 16.4853 7.0531C16.7915 7.05146 17.0903 6.95915 17.3441 6.78784C17.5979 6.61653 17.7953 6.37388 17.9113 6.09051C18.0274 5.80714 18.0569 5.49576 17.9961 5.19564C17.9354 4.89552 17.7871 4.62011 17.57 4.40418C17.3529 4.18824 17.0767 4.04144 16.7763 3.9823C16.4758 3.92317 16.1646 3.95435 15.8819 4.0719C15.5991 4.18946 15.3576 4.38813 15.1876 4.64284C15.0177 4.89755 14.927 5.1969 14.927 5.5031C14.9233 5.55582 14.9233 5.60872 14.927 5.66144L10.077 8.43644C9.77772 8.18144 9.41171 8.01748 9.02223 7.96395C8.63275 7.91041 8.23608 7.96953 7.87914 8.13433C7.5222 8.29912 7.21992 8.56269 7.00805 8.89386C6.79619 9.22504 6.68359 9.60996 6.68359 10.0031C6.68359 10.3962 6.79619 10.7812 7.00805 11.1123C7.21992 11.4435 7.5222 11.7071 7.87914 11.8719C8.23608 12.0367 8.63275 12.0958 9.02223 12.0423C9.41171 11.9887 9.77772 11.8248 10.077 11.5698L14.927 14.3448C14.9233 14.3975 14.9233 14.4504 14.927 14.5031C14.927 14.8097 15.0179 15.1093 15.1882 15.3642C15.3585 15.6191 15.6006 15.8178 15.8838 15.9351C16.167 16.0524 16.4787 16.0831 16.7793 16.0233C17.08 15.9635 17.3562 15.8159 17.573 15.5991C17.7897 15.3823 17.9374 15.1062 17.9972 14.8055C18.057 14.5048 18.0263 14.1932 17.909 13.9099C17.7916 13.6267 17.593 13.3846 17.3381 13.2143C17.0832 13.044 16.7835 12.9531 16.477 12.9531Z" fill="#4285F4"/>
</svg>
