<svg width="16" height="16" viewBox="0 0 16 16" fill="none" xmlns="http://www.w3.org/2000/svg">
<path d="M5.33464 12.0026H10.668V10.6693H5.33464V12.0026ZM5.33464 9.33594H10.668V8.0026H5.33464V9.33594ZM4.0013 14.6693C3.63464 14.6693 3.32075 14.5387 3.05964 14.2776C2.79852 14.0165 2.66797 13.7026 2.66797 13.3359V2.66927C2.66797 2.3026 2.79852 1.98872 3.05964 1.7276C3.32075 1.46649 3.63464 1.33594 4.0013 1.33594H9.33464L13.3346 5.33594V13.3359C13.3346 13.7026 13.2041 14.0165 12.943 14.2776C12.6819 14.5387 12.368 14.6693 12.0013 14.6693H4.0013ZM8.66797 6.0026V2.66927H4.0013V13.3359H12.0013V6.0026H8.66797Z" fill="#575757"/>
</svg>
