<svg width="16" height="16" viewBox="0 0 16 16" fill="none" xmlns="http://www.w3.org/2000/svg">
<path d="M4.4 11.5556H8.6V10.3333H4.4V11.5556ZM10.4 11.5556H11.6V5.44444H10.4V11.5556ZM4.4 9.11111H8.6V7.88889H4.4V9.11111ZM4.4 6.66667H8.6V5.44444H4.4V6.66667ZM3.2 14C2.87 14 2.5875 13.8803 2.3525 13.641C2.1175 13.4016 2 13.1139 2 12.7778V4.22222C2 3.88611 2.1175 3.59838 2.3525 3.35903C2.5875 3.11968 2.87 3 3.2 3H12.8C13.13 3 13.4125 3.11968 13.6475 3.35903C13.8825 3.59838 14 3.88611 14 4.22222V12.7778C14 13.1139 13.8825 13.4016 13.6475 13.641C13.4125 13.8803 13.13 14 12.8 14H3.2ZM3.2 12.7778H12.8V4.22222H3.2V12.7778Z" fill="#575757"/>
</svg>
