<svg width="20" height="20" viewBox="0 0 20 20" fill="none" xmlns="http://www.w3.org/2000/svg">
<path d="M16.668 7.0749V13.6741L10.0013 16.9866L3.33464 13.6741V7.07656L1.66797 6.2274V14.7074L10.0013 18.8466L18.3346 14.7074V6.22656L16.668 7.0749Z" fill="#4385F5"/>
<path d="M3.51714 6.23792L10.0013 3.01625L16.4846 6.23708L18.3346 5.29458L10.0013 1.15625L1.66797 5.29542L3.51714 6.23792Z" fill="#4385F5"/>
<path opacity="0.8" d="M4.16406 7.5V13.1825L5.8249 13.99V8.34583L4.16406 7.5ZM15.8307 7.5V13.1825L14.1699 13.99V8.34583L15.8307 7.5Z" fill="#669EF6"/>
<path d="M4.41797 6.695L6.1163 7.55583L9.9938 5.63833L13.8713 7.55583L15.5696 6.695L10.0013 3.9375L4.41797 6.695Z" fill="#AFCCF9"/>
<path d="M13.3302 9.71198V8.22531L9.99266 6.57031L6.66016 8.21198V9.71198L10.0002 11.4128L13.3302 9.71198Z" fill="#AFCBFB"/>
<path opacity="0.8" d="M13.3305 10.6484L9.99297 12.3401L6.66797 10.6768V12.5559L9.99297 14.1993L13.3305 12.5501V10.6484Z" fill="#4385F5"/>
</svg>
