<svg width="16" height="16" viewBox="0 0 16 16" fill="none" xmlns="http://www.w3.org/2000/svg">
<path d="M11.9987 8.83594L13.332 10.1693V13.3359C13.332 13.7026 13.2015 14.0165 12.9404 14.2776C12.6793 14.5387 12.3654 14.6693 11.9987 14.6693H2.66536C2.2987 14.6693 1.98481 14.5387 1.7237 14.2776C1.46259 14.0165 1.33203 13.7026 1.33203 13.3359V4.0026C1.33203 3.63594 1.46259 3.32205 1.7237 3.06094C1.98481 2.79983 2.2987 2.66927 2.66536 2.66927H6.33203C6.24314 2.86927 6.17648 3.08316 6.13203 3.31094C6.08759 3.53872 6.05425 3.76927 6.03203 4.0026H2.66536V13.3359H11.9987V8.83594ZM12.8654 5.93594L14.9987 8.06927L14.0654 9.0026L11.932 6.86927C11.6987 7.0026 11.4487 7.11371 11.182 7.2026C10.9154 7.29149 10.632 7.33594 10.332 7.33594C9.4987 7.33594 8.79036 7.04427 8.20703 6.46094C7.6237 5.8776 7.33203 5.16927 7.33203 4.33594C7.33203 3.5026 7.6237 2.79427 8.20703 2.21094C8.79036 1.6276 9.4987 1.33594 10.332 1.33594C11.1654 1.33594 11.8737 1.6276 12.457 2.21094C13.0404 2.79427 13.332 3.5026 13.332 4.33594C13.332 4.63594 13.2876 4.91927 13.1987 5.18594C13.1098 5.4526 12.9987 5.7026 12.8654 5.93594ZM11.5154 5.51927C11.8376 5.19705 11.9987 4.8026 11.9987 4.33594C11.9987 3.86927 11.8376 3.47483 11.5154 3.1526C11.1931 2.83038 10.7987 2.66927 10.332 2.66927C9.86537 2.66927 9.47092 2.83038 9.1487 3.1526C8.82648 3.47483 8.66536 3.86927 8.66536 4.33594C8.66536 4.8026 8.82648 5.19705 9.1487 5.51927C9.47092 5.84149 9.86537 6.0026 10.332 6.0026C10.7987 6.0026 11.1931 5.84149 11.5154 5.51927ZM2.66536 8.83594V13.3359V4.0026V8.66927V8.46927V8.83594Z" fill="#575757"/>
</svg>
