<svg width="20" height="20" viewBox="0 0 20 20" fill="none" xmlns="http://www.w3.org/2000/svg">
<path fill-rule="evenodd" clip-rule="evenodd" d="M13.5154 5.37765L9.9987 3.28598C9.48189 2.9618 9.10908 2.45179 8.95703 1.86098C8.95703 1.86098 9.09036 1.59431 9.2737 1.69431C9.45703 1.79431 12.1904 3.41098 13.6487 4.27765C14.1737 4.58598 13.8487 5.94431 13.8487 5.94431C13.8494 5.82858 13.8188 5.7148 13.7601 5.61505C13.7014 5.51529 13.6169 5.43326 13.5154 5.37765Z" fill="#669DF6"/>
<path fill-rule="evenodd" clip-rule="evenodd" d="M14.5753 10.5776C14.5806 10.6313 14.571 10.6854 14.5475 10.734C14.524 10.7825 14.4874 10.8236 14.4419 10.8526L13.6086 11.4193V4.79427C13.6086 4.56927 13.7503 4.3276 13.5586 4.21094L14.3253 4.7776C14.4176 4.83382 14.4933 4.91364 14.5446 5.00885C14.5959 5.10406 14.6208 5.21121 14.6169 5.31927L14.5753 10.5776Z" fill="#AECBFA"/>
<path fill-rule="evenodd" clip-rule="evenodd" d="M9.99922 11.337C9.93994 11.3371 9.88195 11.3197 9.83255 11.287L6.94922 9.57031V10.3203L9.99922 12.137L10.2409 11.662C10.2409 11.662 10.0576 11.337 9.99922 11.337Z" fill="#669DF6"/>
<path fill-rule="evenodd" clip-rule="evenodd" d="M10.1659 12.8339C10.1166 12.8668 10.0586 12.8844 9.99922 12.8844C9.93989 12.8844 9.88189 12.8668 9.83255 12.8339L6.94922 11.1172V11.6672C6.94942 11.7251 6.96398 11.7821 6.99162 11.833C7.01925 11.8839 7.05909 11.9271 7.10755 11.9589L9.84089 13.6255C9.88874 13.6542 9.94345 13.6693 9.99922 13.6693C10.055 13.6693 10.1097 13.6542 10.1576 13.6255C10.2331 13.4896 10.2892 13.3437 10.3242 13.1922L10.1659 12.8672V12.8339Z" fill="#669DF6"/>
<path fill-rule="evenodd" clip-rule="evenodd" d="M9.99922 10.6141L13.0492 8.7974V8.43907C13.05 8.38211 13.0357 8.32595 13.008 8.27622C12.9802 8.2265 12.9398 8.18495 12.8909 8.15574L10.1576 6.48907C10.1097 6.46044 10.055 6.44531 9.99922 6.44531C9.94345 6.44531 9.88874 6.46044 9.84089 6.48907L7.10755 8.15574C7.05974 8.18613 7.02023 8.22794 6.99259 8.2774C6.96495 8.32686 6.95005 8.38242 6.94922 8.43907V8.7974L9.99922 10.6141Z" fill="#AECBFA"/>
<path fill-rule="evenodd" clip-rule="evenodd" d="M9.99922 9.86458L7.10755 8.15625C7.05974 8.18665 7.02023 8.22846 6.99259 8.27792C6.96495 8.32737 6.95005 8.38293 6.94922 8.43958V8.79792L9.99922 10.6146L10.2326 10.1479L9.99922 9.86458Z" fill="#669DF6"/>
<path fill-rule="evenodd" clip-rule="evenodd" d="M10 11.3349V12.1682L13.05 10.3516V9.60156L10.1667 11.2849C10.1142 11.3104 10.0579 11.3273 10 11.3349Z" fill="#4285F4"/>
<path fill-rule="evenodd" clip-rule="evenodd" d="M10.1667 12.8359C10.1173 12.8687 10.0593 12.8861 10 12.8859C10 13.1193 10 13.6359 10 13.6359C10.0607 13.635 10.1204 13.6207 10.175 13.5943L12.9083 11.9276C12.9585 11.8977 12.9997 11.8548 13.0275 11.8035C13.0554 11.7522 13.0689 11.6943 13.0667 11.6359V11.0859L10.1667 12.8359Z" fill="#4285F4"/>
<path fill-rule="evenodd" clip-rule="evenodd" d="M12.8917 8.15625L10 9.86458V10.6146L13.05 8.79792V8.43958C13.0508 8.38262 13.0365 8.32646 13.0087 8.27674C12.9809 8.22701 12.9406 8.18546 12.8917 8.15625Z" fill="#4285F4"/>
<path fill-rule="evenodd" clip-rule="evenodd" d="M6.48218 14.6125L9.94052 16.6708C10.2133 16.8324 10.4492 17.0493 10.633 17.3077C10.8167 17.5661 10.9442 17.8601 11.0072 18.1708C11.0125 18.2001 11.0091 18.2302 10.9972 18.2575C10.9854 18.2848 10.9657 18.3079 10.9407 18.324C10.9157 18.34 10.8865 18.3483 10.8568 18.3477C10.8271 18.3472 10.7982 18.3378 10.7738 18.3208L6.23218 15.6292C5.79052 15.3625 6.17385 14.0625 6.17385 14.0625C6.17356 14.173 6.20178 14.2816 6.2558 14.378C6.30982 14.4743 6.38779 14.5551 6.48218 14.6125Z" fill="#669DF6"/>
<path fill-rule="evenodd" clip-rule="evenodd" d="M5.42578 14.7802V9.31354C5.42796 9.25832 5.44351 9.20444 5.47109 9.15655C5.49866 9.10865 5.53745 9.06816 5.58411 9.03854L6.41745 8.54688V15.1385C6.41745 15.3635 6.41745 15.7135 6.59245 15.8302L5.70911 15.2802C5.62533 15.2256 5.55587 15.1517 5.50657 15.0647C5.45727 14.9777 5.42956 14.8801 5.42578 14.7802Z" fill="#AECBFA"/>
<path fill-rule="evenodd" clip-rule="evenodd" d="M8.46655 4.5539C8.37253 4.50058 8.2663 4.47255 8.15822 4.47255C8.05013 4.47255 7.9439 4.50058 7.84988 4.5539L4.34988 6.67057C4.09125 6.82358 3.80392 6.92178 3.50574 6.95905C3.20755 6.99632 2.90489 6.97188 2.61655 6.88723C2.58709 6.8705 2.56259 6.84627 2.54555 6.81699C2.52851 6.78771 2.51953 6.75444 2.51953 6.72057C2.51953 6.68669 2.52851 6.65342 2.54555 6.62414C2.56259 6.59486 2.58709 6.57063 2.61655 6.5539C2.76655 6.4789 7.88322 3.43723 7.88322 3.43723C8.07488 3.32057 8.49988 4.59557 8.49988 4.59557L8.46655 4.5539Z" fill="#669DF6"/>
<path fill-rule="evenodd" clip-rule="evenodd" d="M8.45781 3.405L12.8911 6.03C12.9391 6.05472 12.9797 6.09159 13.009 6.13692C13.0382 6.18225 13.0551 6.23446 13.0578 6.28834V7.27167L7.49948 3.97167C7.40546 3.91835 7.29923 3.89032 7.19115 3.89032C7.08306 3.89032 6.97683 3.91835 6.88281 3.97167L7.86615 3.39667C7.95804 3.34159 8.06317 3.3125 8.17031 3.3125C8.27745 3.3125 8.38258 3.34159 8.47448 3.39667L8.45781 3.405Z" fill="#AECBFA"/>
<path fill-rule="evenodd" clip-rule="evenodd" d="M11.5172 15.4094C11.6106 15.4644 11.7171 15.4934 11.8255 15.4934C11.9339 15.4934 12.0404 15.4644 12.1339 15.4094L15.6339 13.3344C15.8952 13.1805 16.1858 13.0825 16.487 13.0466C16.7882 13.0108 17.0936 13.0378 17.3839 13.1261C17.4139 13.1402 17.4393 13.1626 17.4571 13.1907C17.4749 13.2187 17.4843 13.2512 17.4843 13.2844C17.4843 13.3176 17.4749 13.3502 17.4571 13.3782C17.4393 13.4062 17.4139 13.4286 17.3839 13.4428L12.1089 16.5678C11.9255 16.6844 11.4922 15.4011 11.4922 15.4011L11.5172 15.4094Z" fill="#669DF6"/>
<path fill-rule="evenodd" clip-rule="evenodd" d="M7.09089 13.9604C7.01377 13.8875 6.9638 13.7905 6.94922 13.6854V12.7188L12.4992 15.9938C12.5905 16.0506 12.6959 16.0808 12.8034 16.0808C12.9109 16.0808 13.0163 16.0506 13.1076 15.9938L12.1242 16.5771C12.0317 16.6347 11.9249 16.6652 11.8159 16.6652C11.7069 16.6652 11.6001 16.6347 11.5076 16.5771L7.09089 13.9604Z" fill="#AECBFA"/>
<path fill-rule="evenodd" clip-rule="evenodd" d="M5.21693 8.1761C5.12319 8.23214 5.04554 8.31147 4.99152 8.40638C4.93749 8.50129 4.90893 8.60856 4.90859 8.71777V12.8844C4.9078 13.197 4.84307 13.5061 4.71839 13.7927C4.59371 14.0793 4.41171 14.3374 4.18359 14.5511C4.16223 14.5702 4.13584 14.5828 4.10754 14.5874C4.07924 14.592 4.05022 14.5884 4.02391 14.577C3.99761 14.5656 3.97512 14.5469 3.95911 14.5231C3.94311 14.4993 3.93425 14.4714 3.93359 14.4428V8.14277C3.93359 7.90943 5.21693 8.14277 5.21693 8.14277V8.1761Z" fill="#669DF6"/>
<path fill-rule="evenodd" clip-rule="evenodd" d="M8.14012 5.43359C8.18511 5.40551 8.23708 5.39062 8.29012 5.39062C8.34316 5.39062 8.39513 5.40551 8.44012 5.43359L9.27345 5.92526L4.20679 8.89192C4.1124 8.9493 4.03442 9.03008 3.98041 9.12644C3.92639 9.22279 3.89816 9.33146 3.89845 9.44192V8.28359C3.89765 8.17428 3.92672 8.06682 3.98252 7.97283C4.03833 7.87883 4.11876 7.80187 4.21512 7.75026L8.14012 5.43359Z" fill="#AECBFA"/>
<path fill-rule="evenodd" clip-rule="evenodd" d="M15.1411 11.2001V7.03344C15.1416 6.72311 15.2037 6.41596 15.3238 6.12984C15.444 5.84372 15.6199 5.58434 15.8411 5.36678C15.8411 5.36678 16.1161 5.27511 16.0995 5.54178C16.0828 5.80844 16.0995 11.6834 16.0995 11.6834C15.8411 11.9918 14.7578 11.6834 14.7578 11.6834C14.8555 11.6391 14.9413 11.5722 15.0079 11.4881C15.0746 11.4041 15.1203 11.3053 15.1411 11.2001Z" fill="#669DF6"/>
<path fill-rule="evenodd" clip-rule="evenodd" d="M15.8339 12.1771L11.8839 14.5521C11.8376 14.5809 11.7842 14.5962 11.7297 14.5962C11.6752 14.5962 11.6218 14.5809 11.5755 14.5521L10.7422 14.0771L15.8339 11.0187C15.9282 10.9614 16.0062 10.8806 16.0602 10.7842C16.1143 10.6879 16.1425 10.5792 16.1422 10.4688V11.6687C16.1255 11.8604 15.8339 12.1771 15.8339 12.1771Z" fill="#AECBFA"/>
</svg>
