<svg width="20" height="20" viewBox="0 0 20 20" fill="none" xmlns="http://www.w3.org/2000/svg">
<path fill-rule="evenodd" clip-rule="evenodd" d="M14.8742 11.8302L6.39089 16.7302L5.57422 15.3302L14.0659 10.4219L14.8742 11.8302Z" fill="#AECBFA"/>
<path fill-rule="evenodd" clip-rule="evenodd" d="M6.35938 15.1281V5.32812H7.91771V13.9531L6.35938 15.1281Z" fill="#AECBFA"/>
<path fill-rule="evenodd" clip-rule="evenodd" d="M7.96667 8.06823L7.75 6.10156L16.2417 10.9932L15.4333 12.3932L7.96667 8.06823Z" fill="#AECBFA"/>
<path fill-rule="evenodd" clip-rule="evenodd" d="M11.9917 8.54323L7.75 6.10156L7.96667 8.06823L9.225 8.7849C9.67642 8.94588 10.1573 9.00762 10.6347 8.96592C11.1121 8.92421 11.575 8.78004 11.9917 8.54323Z" fill="#4285F4"/>
<path fill-rule="evenodd" clip-rule="evenodd" d="M6.77749 6.90469C6.43072 6.30406 6.29186 5.60577 6.38247 4.91816C6.47308 4.23056 6.78808 3.59208 7.27862 3.10178C7.76915 2.61148 8.40778 2.29678 9.09542 2.20649C9.78307 2.11621 10.4813 2.2554 11.0818 2.60246C11.6822 2.94952 12.1514 3.48505 12.4164 4.12596C12.6814 4.76688 12.7275 5.47734 12.5476 6.14713C12.3676 6.81692 11.9716 7.40859 11.421 7.83034C10.8704 8.25209 10.196 8.48035 9.50249 8.47969C8.95039 8.47749 8.40846 8.33099 7.93046 8.05471C7.45246 7.77844 7.05499 7.38199 6.77749 6.90469ZM10.8358 4.57136C10.7015 4.33869 10.5084 4.1454 10.2758 4.01084C10.0433 3.87629 9.77949 3.8052 9.51083 3.80469C9.30986 3.80359 9.11066 3.84223 8.92467 3.91837C8.73869 3.99452 8.56959 4.10668 8.4271 4.2484C8.2846 4.39011 8.17153 4.5586 8.09437 4.74417C8.01721 4.92973 7.97749 5.12872 7.97749 5.32969C7.96196 5.54 7.98997 5.75124 8.05978 5.95023C8.12958 6.14922 8.23968 6.33167 8.3832 6.48618C8.52672 6.64069 8.70056 6.76393 8.89386 6.84821C9.08717 6.93249 9.29578 6.97599 9.50666 6.97599C9.71754 6.97599 9.92615 6.93249 10.1195 6.84821C10.3128 6.76393 10.4866 6.64069 10.6301 6.48618C10.7736 6.33167 10.8837 6.14922 10.9535 5.95023C11.0234 5.75124 11.0514 5.54 11.0358 5.32969C11.0376 5.06365 10.9686 4.80193 10.8358 4.57136Z" fill="#AECBFA"/>
<path fill-rule="evenodd" clip-rule="evenodd" d="M6.35938 10.7812V15.1313L7.91771 13.9563V12.5979C7.81221 12.197 7.61717 11.8252 7.34725 11.5106C7.07733 11.1959 6.73957 10.9465 6.35938 10.7812Z" fill="#4285F4"/>
<path fill-rule="evenodd" clip-rule="evenodd" d="M11.1097 14.0083L14.8764 11.8333L13.0347 11L11.993 11.6667C11.4125 12.3236 11.0975 13.1733 11.1097 14.05V14.0083Z" fill="#4285F4"/>
<path fill-rule="evenodd" clip-rule="evenodd" d="M2.0925 15.5774C1.88491 15.2197 1.74997 14.8246 1.69542 14.4147C1.64087 14.0047 1.66779 13.5881 1.77463 13.1886C1.88148 12.7891 2.06614 12.4146 2.31803 12.0866C2.56992 11.7587 2.88409 11.4836 3.2425 11.2774C3.59866 11.0685 3.99295 10.9329 4.40222 10.8786C4.81149 10.8242 5.2275 10.8521 5.62584 10.9607C6.12748 11.0929 6.58869 11.347 6.96852 11.7004C7.34834 12.0537 7.63502 12.4954 7.80308 12.9862C7.97114 13.477 8.01539 14.0017 7.93188 14.5137C7.84838 15.0257 7.63971 15.5092 7.32442 15.9211C7.00912 16.3331 6.59696 16.6608 6.12455 16.8752C5.65213 17.0895 5.13409 17.1839 4.61643 17.1499C4.09877 17.1159 3.59753 16.9545 3.15722 16.6802C2.71692 16.4059 2.35118 16.027 2.0925 15.5774ZM6.13417 13.2357C6.03887 13.0554 5.90762 12.8966 5.74852 12.769C5.58942 12.6415 5.40586 12.5479 5.20917 12.494C4.91692 12.4145 4.6076 12.4238 4.32065 12.5207C4.03371 12.6177 3.78212 12.7979 3.59797 13.0383C3.41382 13.2788 3.30545 13.5686 3.28666 13.8709C3.26788 14.1732 3.33954 14.4743 3.4925 14.7357C3.59318 14.9092 3.72704 15.0611 3.88644 15.1828C4.04583 15.3045 4.22764 15.3937 4.42148 15.4451C4.61532 15.4966 4.8174 15.5094 5.01618 15.4827C5.21496 15.4561 5.40655 15.3905 5.58 15.2899C5.75346 15.1892 5.90538 15.0553 6.0271 14.8959C6.14883 14.7365 6.23796 14.5547 6.28942 14.3609C6.34088 14.167 6.35366 13.965 6.32702 13.7662C6.30038 13.5674 6.23485 13.3758 6.13417 13.2024V13.2357Z" fill="#AECBFA"/>
<path fill-rule="evenodd" clip-rule="evenodd" d="M11.9418 15.2945C11.6677 14.8164 11.5234 14.2748 11.5234 13.7237C11.5234 13.1725 11.6677 12.631 11.9418 12.1528C12.3602 11.4309 13.0472 10.9039 13.8529 10.6868C14.6586 10.4698 15.5174 10.5804 16.2418 10.9945C16.964 11.4127 17.4907 12.1004 17.7063 12.9066C17.9219 13.7128 17.8088 14.5716 17.3918 15.2945C17.1149 15.772 16.7175 16.1683 16.2392 16.4438C15.761 16.7193 15.2187 16.8644 14.6668 16.8644C14.1148 16.8644 13.5726 16.7193 13.0944 16.4438C12.6161 16.1683 12.2186 15.772 11.9418 15.2945ZM15.9918 12.9528C15.8531 12.7247 15.6616 12.5332 15.4334 12.3945C15.0804 12.1948 14.6628 12.1422 14.2713 12.2483C13.8797 12.3544 13.5458 12.6105 13.3418 12.9612C13.2103 13.1938 13.1413 13.4565 13.1413 13.7237C13.1413 13.9909 13.2103 14.2535 13.3418 14.4862C13.5104 14.7784 13.7712 15.0065 14.0834 15.1347C14.3955 15.2629 14.7414 15.2839 15.0668 15.1945C15.26 15.1432 15.4413 15.0543 15.6 14.9327C15.7588 14.8111 15.8919 14.6594 15.9918 14.4862C16.1232 14.252 16.1922 13.988 16.1922 13.7195C16.1922 13.451 16.1232 13.187 15.9918 12.9528Z" fill="#AECBFA"/>
<path fill-rule="evenodd" clip-rule="evenodd" d="M7.90755 13.4531C7.90755 13.4531 5.95755 15.1198 5.57422 15.3281L7.95755 13.9531C7.95327 13.7855 7.93656 13.6183 7.90755 13.4531Z" fill="#669DF6"/>
<path fill-rule="evenodd" clip-rule="evenodd" d="M8.46042 8.32812C8.46042 8.32812 7.96875 5.59479 7.96875 5.32812V8.06979C8.12525 8.15998 8.28986 8.23531 8.46042 8.29479V8.32812Z" fill="#669DF6"/>
<path fill-rule="evenodd" clip-rule="evenodd" d="M12.75 11.2229C12.75 11.2229 15.05 12.1813 15.4333 12.3979L13.05 11.0312C12.9423 11.0822 12.8415 11.1466 12.75 11.2229Z" fill="#669DF6"/>
</svg>
