<svg width="16" height="16" viewBox="0 0 16 16" fill="none" xmlns="http://www.w3.org/2000/svg">
<g clip-path="url(#clip0_8563_135381)">
<path d="M3.7263 8.94167C3.46519 8.68056 3.33464 8.36667 3.33464 8C3.33464 7.63333 3.46519 7.31944 3.7263 7.05833C3.98741 6.79722 4.3013 6.66667 4.66797 6.66667C5.03464 6.66667 5.34852 6.79722 5.60964 7.05833C5.87075 7.31944 6.0013 7.63333 6.0013 8C6.0013 8.36667 5.87075 8.68056 5.60964 8.94167C5.34852 9.20278 5.03464 9.33333 4.66797 9.33333C4.3013 9.33333 3.98741 9.20278 3.7263 8.94167ZM4.66797 12C3.55686 12 2.61241 11.6111 1.83464 10.8333C1.05686 10.0556 0.667969 9.11111 0.667969 8C0.667969 6.88889 1.05686 5.94444 1.83464 5.16667C2.61241 4.38889 3.55686 4 4.66797 4C5.41241 4 6.08741 4.18333 6.69297 4.55C7.29852 4.91667 7.77908 5.4 8.13463 6H14.0013L16.0013 8L13.0013 11L11.668 10L10.3346 11L8.91797 10H8.13463C7.77908 10.6 7.29852 11.0833 6.69297 11.45C6.08741 11.8167 5.41241 12 4.66797 12ZM4.66797 10.6667C5.29019 10.6667 5.83741 10.4778 6.30964 10.1C6.78186 9.72222 7.09575 9.24444 7.2513 8.66667H9.33463L10.3013 9.35L11.668 8.33333L12.8513 9.25L14.1013 8L13.4346 7.33333H7.2513C7.09575 6.75556 6.78186 6.27778 6.30964 5.9C5.83741 5.52222 5.29019 5.33333 4.66797 5.33333C3.93464 5.33333 3.30686 5.59444 2.78464 6.11667C2.26241 6.63889 2.0013 7.26667 2.0013 8C2.0013 8.73333 2.26241 9.36111 2.78464 9.88333C3.30686 10.4056 3.93464 10.6667 4.66797 10.6667Z" fill="#575757"/>
</g>
<defs>
<clipPath id="clip0_8563_135381">
<rect width="16" height="16" fill="white"/>
</clipPath>
</defs>
</svg>
