<svg width="20" height="20" viewBox="0 0 20 20" fill="none" xmlns="http://www.w3.org/2000/svg">
<path d="M6.96484 6.50365C6.80279 6.63503 6.65224 6.78 6.51484 6.93698L6.32318 6.74531L5.58984 6.01198L6.03151 5.57031L6.76484 6.30365L6.96484 6.50365Z" fill="#4285F4"/>
<path d="M14.432 13.963L13.9904 14.4047L13.082 13.488C13.2414 13.3565 13.3892 13.2115 13.5237 13.0547L14.432 13.963Z" fill="#4285F4"/>
<path d="M5.48359 9.66406C5.47507 9.77501 5.47507 9.88645 5.48359 9.9974C5.47507 10.0944 5.47507 10.192 5.48359 10.2891H4.05859V9.66406H5.48359Z" fill="#4285F4"/>
<path d="M15.9419 9.66406V10.2891H14.5586C14.5586 10.1974 14.5586 10.0974 14.5586 9.9974C14.5586 9.8974 14.5586 9.7724 14.5586 9.66406H15.9419Z" fill="#4285F4"/>
<path d="M6.49141 13.0391C6.62586 13.1985 6.77361 13.3463 6.93307 13.4807L6.00807 14.4057L5.56641 13.9641L6.49141 13.0391Z" fill="#4285F4"/>
<path d="M13.2503 6.28698L13.9669 5.57031L14.4086 6.01198L13.5003 6.92031C13.3658 6.76085 13.2181 6.6131 13.0586 6.47865L13.2503 6.28698Z" fill="#4285F4"/>
<path d="M9.99974 14.5557H10.3164V15.9474H9.69141V14.5391L9.99974 14.5557Z" fill="#4285F4"/>
<path d="M10.3315 4.05469V5.46302C10.2372 5.45473 10.1424 5.45473 10.0482 5.46302C9.93722 5.45472 9.8258 5.45472 9.71484 5.46302V4.05469H10.3315Z" fill="#4285F4"/>
<path fill-rule="evenodd" clip-rule="evenodd" d="M14.9349 9.66927C14.8611 8.57759 14.424 7.54202 13.6932 6.7276C13.5537 6.5727 13.4033 6.42789 13.2432 6.29427C12.4355 5.57864 11.4119 5.15335 10.3349 5.08594H10.0016H9.69323C8.60982 5.15392 7.58025 5.58218 6.76823 6.3026C6.61278 6.44137 6.46533 6.58883 6.32656 6.74427C5.60584 7.55687 5.17501 8.58559 5.10156 9.66927C5.10156 9.7776 5.10156 9.89427 5.10156 10.0026C5.10156 10.1109 5.10156 10.2026 5.10156 10.2943C5.16438 11.3807 5.58651 12.4155 6.30156 13.2359C6.43818 13.3934 6.58577 13.541 6.74323 13.6776C7.56532 14.4118 8.60993 14.849 9.7099 14.9193H10.3349C11.4215 14.8476 12.4534 14.4167 13.2682 13.6943C13.4277 13.5598 13.5754 13.4121 13.7099 13.2526C14.4408 12.4332 14.8726 11.3905 14.9349 10.2943C14.9349 10.2026 14.9349 10.1026 14.9349 10.0026C14.9349 9.9026 14.9432 9.7776 14.9349 9.66927ZM10.0016 14.3026C9.1511 14.3026 8.31974 14.0504 7.61261 13.5779C6.90548 13.1054 6.35434 12.4339 6.02888 11.6481C5.70342 10.8624 5.61827 9.99783 5.78419 9.16372C5.9501 8.3296 6.35964 7.56341 6.961 6.96205C7.56237 6.36068 8.32856 5.95114 9.16267 5.78523C9.99679 5.61931 10.8614 5.70447 11.6471 6.02992C12.4328 6.35538 13.1044 6.90652 13.5769 7.61365C14.0494 8.32078 14.3016 9.15214 14.3016 10.0026C14.3016 11.143 13.8485 12.2368 13.0421 13.0432C12.2357 13.8496 11.142 14.3026 10.0016 14.3026ZM10.0016 6.7276C9.35644 6.7391 8.72908 6.9409 8.19824 7.30767C7.6674 7.67445 7.25672 8.18986 7.01777 8.78921C6.77881 9.38856 6.72222 10.0451 6.8551 10.6765C6.98797 11.3079 7.3044 11.886 7.76465 12.3382C8.22491 12.7904 8.80848 13.0966 9.44213 13.2183C10.0758 13.34 10.7312 13.2718 11.3263 13.0223C11.9213 12.7728 12.4294 12.3531 12.7868 11.8159C13.1441 11.2787 13.3348 10.6478 13.3349 10.0026C13.3338 9.56789 13.2465 9.13772 13.0779 8.73704C12.9092 8.33636 12.6627 7.97315 12.3527 7.66849C12.0426 7.36382 11.6751 7.12377 11.2715 6.96226C10.8679 6.80074 10.4362 6.72098 10.0016 6.7276Z" fill="#669DF6"/>
<path fill-rule="evenodd" clip-rule="evenodd" d="M10.0017 4.16875C9.71043 4.14406 9.43899 4.0109 9.24118 3.79561C9.04337 3.58033 8.93359 3.29862 8.93359 3.00625C8.93359 2.71388 9.04337 2.43217 9.24118 2.21689C9.43899 2.0016 9.71043 1.86844 10.0017 1.84375V2.50208C9.87072 2.51843 9.75017 2.58208 9.66277 2.68106C9.57537 2.78004 9.52714 2.90754 9.52714 3.03958C9.52714 3.17163 9.57537 3.29913 9.66277 3.39811C9.75017 3.49709 9.87072 3.56074 10.0017 3.57708V4.16875Z" fill="#AECBFA"/>
<path fill-rule="evenodd" clip-rule="evenodd" d="M10 4.16667V3.575C10.131 3.55865 10.2516 3.49501 10.339 3.39603C10.4264 3.29704 10.4746 3.16955 10.4746 3.0375C10.4746 2.90545 10.4264 2.77796 10.339 2.67897C10.2516 2.57999 10.131 2.51635 10 2.5V1.875C10.2665 1.92605 10.5069 2.06838 10.6797 2.27752C10.8526 2.48665 10.9472 2.7495 10.9472 3.02083C10.9472 3.29217 10.8526 3.55502 10.6797 3.76415C10.5069 3.97328 10.2665 4.11562 10 4.16667Z" fill="#669DF6"/>
<path fill-rule="evenodd" clip-rule="evenodd" d="M10.0019 18.1276C9.73537 18.0766 9.49501 17.9342 9.32214 17.7251C9.14926 17.516 9.05469 17.2531 9.05469 16.9818C9.05469 16.7104 9.14926 16.4476 9.32214 16.2385C9.49501 16.0293 9.73537 15.887 10.0019 15.8359V16.4609C9.88867 16.4933 9.7891 16.5616 9.71821 16.6556C9.64732 16.7495 9.60897 16.8641 9.60897 16.9818C9.60897 17.0995 9.64732 17.214 9.71821 17.308C9.7891 17.4019 9.88867 17.4703 10.0019 17.5026V18.1276Z" fill="#AECBFA"/>
<path fill-rule="evenodd" clip-rule="evenodd" d="M10 18.1276V17.5026C10.131 17.4863 10.2516 17.4226 10.339 17.3236C10.4264 17.2246 10.4746 17.0971 10.4746 16.9651C10.4746 16.8331 10.4264 16.7056 10.339 16.6066C10.2516 16.5076 10.131 16.444 10 16.4276V15.8359C10.2913 15.8606 10.5628 15.9938 10.7606 16.2091C10.9584 16.4244 11.0682 16.7061 11.0682 16.9984C11.0682 17.2908 10.9584 17.5725 10.7606 17.7878C10.5628 18.0031 10.2913 18.1363 10 18.1609V18.1276Z" fill="#669DF6"/>
<path fill-rule="evenodd" clip-rule="evenodd" d="M5.0763 6.23073C4.76909 6.23073 4.47447 6.10869 4.25724 5.89146C4.04001 5.67423 3.91797 5.37961 3.91797 5.0724C3.91797 4.76519 4.04001 4.47056 4.25724 4.25333C4.47447 4.0361 4.76909 3.91406 5.0763 3.91406V4.53906C4.93485 4.53906 4.7992 4.59525 4.69918 4.69527C4.59916 4.79529 4.54297 4.93095 4.54297 5.0724C4.54297 5.21384 4.59916 5.3495 4.69918 5.44952C4.7992 5.54954 4.93485 5.60573 5.0763 5.60573V6.23073Z" fill="#AECBFA"/>
<path fill-rule="evenodd" clip-rule="evenodd" d="M5.07422 6.23073V5.60573C5.21567 5.60573 5.35132 5.54954 5.45134 5.44952C5.55136 5.3495 5.60755 5.21384 5.60755 5.0724C5.60755 4.93095 5.55136 4.79529 5.45134 4.69527C5.35132 4.59525 5.21567 4.53906 5.07422 4.53906V3.91406C5.38143 3.91406 5.67605 4.0361 5.89328 4.25333C6.11051 4.47056 6.23255 4.76519 6.23255 5.0724C6.23255 5.37961 6.11051 5.67423 5.89328 5.89146C5.67605 6.10869 5.38143 6.23073 5.07422 6.23073Z" fill="#669DF6"/>
<path fill-rule="evenodd" clip-rule="evenodd" d="M14.924 16.0823C14.6167 16.0823 14.3221 15.9603 14.1049 15.743C13.8877 15.5258 13.7656 15.2312 13.7656 14.924C13.7656 14.6167 13.8877 14.3221 14.1049 14.1049C14.3221 13.8877 14.6167 13.7656 14.924 13.7656V14.3906C14.7825 14.3906 14.6469 14.4468 14.5468 14.5468C14.4468 14.6469 14.3906 14.7825 14.3906 14.924C14.3906 15.0654 14.4468 15.2011 14.5468 15.3011C14.6469 15.4011 14.7825 15.4573 14.924 15.4573V16.0823Z" fill="#AECBFA"/>
<path fill-rule="evenodd" clip-rule="evenodd" d="M14.9258 16.0823V15.4573C15.0672 15.4573 15.2029 15.4011 15.3029 15.3011C15.4029 15.2011 15.4591 15.0654 15.4591 14.924C15.4591 14.7825 15.4029 14.6469 15.3029 14.5468C15.2029 14.4468 15.0672 14.3906 14.9258 14.3906V13.7656C15.233 13.7656 15.5276 13.8877 15.7448 14.1049C15.9621 14.3221 16.0841 14.6167 16.0841 14.924C16.0841 15.2312 15.9621 15.5258 15.7448 15.743C15.5276 15.9603 15.233 16.0823 14.9258 16.0823Z" fill="#669DF6"/>
<path fill-rule="evenodd" clip-rule="evenodd" d="M3.03333 11.1604C2.72612 11.1604 2.4315 11.0384 2.21427 10.8211C1.99704 10.6039 1.875 10.3093 1.875 10.0021C1.875 9.69487 1.99704 9.40025 2.21427 9.18302C2.4315 8.96579 2.72612 8.84375 3.03333 8.84375V9.46875C2.9633 9.46875 2.89394 9.48255 2.82924 9.50935C2.76453 9.53615 2.70573 9.57544 2.65621 9.62496C2.60669 9.67448 2.5674 9.73328 2.5406 9.79799C2.5138 9.86269 2.5 9.93205 2.5 10.0021C2.5 10.0721 2.5138 10.1415 2.5406 10.2062C2.5674 10.2709 2.60669 10.3297 2.65621 10.3792C2.70573 10.4287 2.76453 10.468 2.82924 10.4948C2.89394 10.5216 2.9633 10.5354 3.03333 10.5354V11.1604Z" fill="#AECBFA"/>
<path fill-rule="evenodd" clip-rule="evenodd" d="M3.03516 11.1604V10.5354C3.10519 10.5354 3.17455 10.5216 3.23925 10.4948C3.30396 10.468 3.36276 10.4287 3.41228 10.3792C3.4618 10.3297 3.50109 10.2709 3.52789 10.2062C3.55469 10.1415 3.56849 10.0721 3.56849 10.0021C3.56849 9.93205 3.55469 9.86269 3.52789 9.79799C3.50109 9.73328 3.4618 9.67448 3.41228 9.62496C3.36276 9.57544 3.30396 9.53615 3.23925 9.50935C3.17455 9.48255 3.10519 9.46875 3.03516 9.46875V8.84375C3.34237 8.84375 3.63699 8.96579 3.85422 9.18302C4.07145 9.40025 4.19349 9.69487 4.19349 10.0021C4.19349 10.3093 4.07145 10.6039 3.85422 10.8211C3.63699 11.0384 3.34237 11.1604 3.03516 11.1604Z" fill="#669DF6"/>
<path fill-rule="evenodd" clip-rule="evenodd" d="M16.9658 11.1604C16.8117 11.1636 16.6585 11.1357 16.5153 11.0784C16.3722 11.0211 16.242 10.9357 16.1325 10.8271C15.9312 10.6003 15.8239 10.3052 15.8325 10.0021C15.8347 9.69411 15.9586 9.3995 16.1772 9.18251C16.3957 8.96551 16.6912 8.84374 16.9992 8.84375V9.46875C16.857 9.46873 16.7204 9.52466 16.6191 9.62444C16.5177 9.72423 16.4597 9.85987 16.4575 10.0021C16.4586 10.1431 16.5156 10.2779 16.6158 10.3771C16.6647 10.4294 16.7242 10.4706 16.7903 10.4979C16.8565 10.5252 16.9277 10.538 16.9992 10.5354L16.9658 11.1604Z" fill="#AECBFA"/>
<path fill-rule="evenodd" clip-rule="evenodd" d="M16.9648 11.1604V10.5354C17.1063 10.5354 17.2419 10.4792 17.342 10.3792C17.442 10.2792 17.4982 10.1435 17.4982 10.0021C17.4982 9.86063 17.442 9.72498 17.342 9.62496C17.2419 9.52494 17.1063 9.46875 16.9648 9.46875V8.84375C17.2721 8.84375 17.5667 8.96579 17.7839 9.18302C18.0011 9.40025 18.1232 9.69487 18.1232 10.0021C18.1232 10.3093 18.0011 10.6039 17.7839 10.8211C17.5667 11.0384 17.2721 11.1604 16.9648 11.1604Z" fill="#669DF6"/>
<path fill-rule="evenodd" clip-rule="evenodd" d="M5.04986 16.0834C4.89459 16.0839 4.74081 16.0531 4.59765 15.993C4.45449 15.9329 4.32488 15.8446 4.21653 15.7334C4.10893 15.624 4.02523 15.4934 3.97072 15.3499C3.91621 15.2065 3.89208 15.0533 3.89986 14.9C3.91282 14.5891 4.04609 14.2953 4.27154 14.0807C4.49698 13.8662 4.79698 13.7476 5.1082 13.75V14.375C4.95987 14.3726 4.81635 14.4277 4.70764 14.5286C4.59893 14.6295 4.53344 14.7686 4.52486 14.9167C4.52094 14.9844 4.53155 15.0521 4.55599 15.1154C4.58042 15.1786 4.61812 15.2359 4.66653 15.2834C4.77131 15.3854 4.91194 15.4423 5.0582 15.4417L5.04986 16.0834Z" fill="#AECBFA"/>
<path fill-rule="evenodd" clip-rule="evenodd" d="M5.05078 16.0823V15.4573C5.19911 15.4597 5.34263 15.4047 5.45134 15.3037C5.56005 15.2028 5.62553 15.0637 5.63411 14.9156C5.63859 14.8479 5.62824 14.78 5.60377 14.7167C5.5793 14.6533 5.54131 14.5961 5.49245 14.549C5.38767 14.4469 5.24704 14.3901 5.10078 14.3906V13.7656C5.25605 13.7651 5.40984 13.7959 5.55299 13.856C5.69615 13.9161 5.82576 14.0044 5.93411 14.1156C6.04213 14.2247 6.12611 14.3553 6.18065 14.4988C6.23519 14.6423 6.25908 14.7957 6.25078 14.949C6.23372 15.2555 6.0998 15.5439 5.87658 15.7547C5.65336 15.9655 5.35782 16.0828 5.05078 16.0823Z" fill="#669DF6"/>
<path fill-rule="evenodd" clip-rule="evenodd" d="M14.924 6.23073C14.6167 6.23073 14.3221 6.10869 14.1049 5.89146C13.8877 5.67423 13.7656 5.37961 13.7656 5.0724C13.7656 4.76519 13.8877 4.47056 14.1049 4.25333C14.3221 4.0361 14.6167 3.91406 14.924 3.91406V4.53906C14.7825 4.53906 14.6469 4.59525 14.5468 4.69527C14.4468 4.79529 14.3906 4.93095 14.3906 5.0724C14.3906 5.21384 14.4468 5.3495 14.5468 5.44952C14.6469 5.54954 14.7825 5.60573 14.924 5.60573V6.23073Z" fill="#AECBFA"/>
<path fill-rule="evenodd" clip-rule="evenodd" d="M14.9258 6.23073V5.60573C15.0672 5.60573 15.2029 5.54954 15.3029 5.44952C15.4029 5.3495 15.4591 5.21384 15.4591 5.0724C15.4591 4.93095 15.4029 4.79529 15.3029 4.69527C15.2029 4.59525 15.0672 4.53906 14.9258 4.53906V3.91406C15.233 3.91406 15.5276 4.0361 15.7448 4.25333C15.9621 4.47056 16.0841 4.76519 16.0841 5.0724C16.0841 5.37961 15.9621 5.67423 15.7448 5.89146C15.5276 6.10869 15.233 6.23073 14.9258 6.23073Z" fill="#669DF6"/>
<path fill-rule="evenodd" clip-rule="evenodd" d="M9.99874 6.72292V13.2646C9.55532 13.287 9.11198 13.219 8.69566 13.0647C8.27934 12.9104 7.89873 12.6731 7.57696 12.3672C7.2552 12.0613 6.999 11.6931 6.82393 11.2851C6.64887 10.8771 6.55859 10.4377 6.55859 9.99375C6.55859 9.54977 6.64887 9.11042 6.82393 8.7024C6.999 8.29439 7.2552 7.92623 7.57696 7.6203C7.89873 7.31438 8.27934 7.07707 8.69566 6.9228C9.11198 6.76853 9.55532 6.70053 9.99874 6.72292Z" fill="#AECBFA"/>
<path fill-rule="evenodd" clip-rule="evenodd" d="M13.3333 10.0021C13.3334 10.4367 13.2468 10.867 13.0785 11.2678C12.9101 11.6685 12.6635 12.0316 12.3531 12.3359C12.0427 12.6401 11.6746 12.8793 11.2706 13.0395C10.8665 13.1997 10.4346 13.2776 10 13.2687V6.72708C10.435 6.71933 10.8671 6.79832 11.2712 6.95943C11.6753 7.12054 12.0433 7.36055 12.3536 7.66544C12.6639 7.97032 12.9104 8.33398 13.0786 8.73517C13.2468 9.13636 13.3334 9.56705 13.3333 10.0021Z" fill="#669DF6"/>
<path d="M11.774 10.8672H10.0156V11.4922H11.774V10.8672Z" fill="#AECBFA"/>
<path d="M11.774 9.72656H10.0156V10.3516H11.774V9.72656Z" fill="#AECBFA"/>
<path d="M11.774 8.59375H10.0156V9.21875H11.774V8.59375Z" fill="#AECBFA"/>
<path d="M10.0161 10.8672H8.25781V11.4922H10.0161V10.8672Z" fill="white"/>
<path d="M10.0161 9.72656H8.25781V10.3516H10.0161V9.72656Z" fill="white"/>
<path d="M10.0161 8.59375H8.25781V9.21875H10.0161V8.59375Z" fill="white"/>
</svg>
