<svg width="16" height="16" viewBox="0 0 16 16" fill="none" xmlns="http://www.w3.org/2000/svg">
<path d="M12.4871 4.40116C12.6023 4.28306 12.6664 4.1243 12.6654 3.95929C12.6643 3.79428 12.5983 3.63632 12.4817 3.51964C12.365 3.40296 12.207 3.33696 12.042 3.33595C11.877 3.33494 11.7182 3.399 11.6001 3.51424L10.7706 4.34376C9.88681 3.6744 8.79061 3.34753 7.68453 3.42353C6.57846 3.49953 5.53727 3.97327 4.75332 4.75722C3.96936 5.54118 3.49562 6.58237 3.41962 7.68844C3.34362 8.79451 3.6705 9.89071 4.33985 10.7745L3.51034 11.604C3.39509 11.7221 3.33103 11.8809 3.33204 12.0459C3.33305 12.2109 3.39905 12.3689 3.51573 12.4856C3.63241 12.6023 3.79038 12.6682 3.95539 12.6693C4.12039 12.6703 4.27915 12.6062 4.39725 12.491L5.22677 11.6614C6.11059 12.3308 7.20679 12.6577 8.31286 12.5817C9.41893 12.5057 10.4601 12.0319 11.2441 11.248C12.028 10.464 12.5018 9.42284 12.5778 8.31677C12.6538 7.2107 12.3269 6.11449 11.6575 5.23068L12.4871 4.40116ZM4.66308 8.0026C4.66308 6.16336 6.15946 4.66699 7.9987 4.66699C8.66665 4.66623 9.31926 4.86715 9.87112 5.24345L5.23955 9.87503C4.86325 9.32317 4.66232 8.67055 4.66308 8.0026ZM11.3343 8.0026C11.3343 9.84185 9.83794 11.3382 7.9987 11.3382C7.33075 11.339 6.67814 11.1381 6.12627 10.7618L10.7578 6.13018C11.1341 6.68204 11.3351 7.33466 11.3343 8.0026Z" fill="#575757"/>
</svg>
