<svg width="20" height="20" viewBox="0 0 20 20" fill="none" xmlns="http://www.w3.org/2000/svg">
<path d="M4.525 18.1869L0.174375 10.6513C-0.058125 10.2488 -0.058125 9.7525 0.174375 9.35L4.525 1.81469C4.75719 1.4125 5.18594 1.16469 5.65 1.16406H14.3553C14.8178 1.16625 15.2444 1.41406 15.4756 1.81469L19.8256 9.35C20.0581 9.7525 20.0581 10.2488 19.8256 10.6513L15.475 18.1869C15.2428 18.5891 14.8141 18.8369 14.35 18.8375H5.64687C5.18344 18.8359 4.75625 18.5881 4.52406 18.1869H4.525Z" fill="#4386FA"/>
<path opacity="0.1" d="M12.7153 7.57812C12.7153 7.57812 13.9247 10.4791 12.2759 12.1234C10.6272 13.7678 7.625 12.7153 7.625 12.7153L13.7319 18.8391H14.3519C14.8162 18.8384 15.245 18.5903 15.4769 18.1884L18.3569 13.2016L12.7153 7.57812Z" fill="black"/>
<path d="M14.1458 13.5106L12.8123 12.1741C12.7978 12.1592 12.7812 12.1465 12.763 12.1366C13.3302 11.406 13.5975 10.4866 13.5104 9.56581C13.4234 8.64501 12.9886 7.79203 12.2945 7.18066C11.6005 6.56928 10.6995 6.24552 9.77506 6.27533C8.85063 6.30513 7.97235 6.68627 7.31914 7.34108C6.66594 7.9959 6.28696 8.87512 6.25942 9.79962C6.23189 10.7241 6.55787 11.6243 7.17094 12.3169C7.78402 13.0094 8.63807 13.4421 9.55908 13.5269C10.4801 13.6117 11.3988 13.3421 12.128 12.7731C12.1375 12.7903 12.1494 12.8061 12.1633 12.82L13.4999 14.1566C13.5391 14.1958 13.5923 14.2178 13.6478 14.2178C13.7033 14.2178 13.7565 14.1958 13.7958 14.1566L14.1458 13.8066C14.185 13.7673 14.207 13.7141 14.207 13.6586C14.207 13.6031 14.185 13.5499 14.1458 13.5106ZM9.88735 12.6462C9.34652 12.6463 8.81781 12.486 8.36809 12.1855C7.91838 11.8851 7.56786 11.4581 7.36086 10.9584C7.15387 10.4588 7.09969 9.90894 7.20519 9.37849C7.31068 8.84804 7.57111 8.3608 7.95354 7.97837C8.33597 7.59594 8.82322 7.33551 9.35366 7.23001C9.88411 7.12452 10.4339 7.17869 10.9336 7.38569C11.4332 7.59269 11.8603 7.94321 12.1607 8.39292C12.4612 8.84264 12.6215 9.37134 12.6214 9.91218C12.6213 10.6373 12.3333 11.3326 11.8205 11.8454C11.3078 12.3581 10.6124 12.6462 9.88735 12.6462ZM8.13954 9.76624V10.8962C8.3136 11.2034 8.56548 11.4597 8.87016 11.6384V9.75936L8.13954 9.76624ZM9.50673 8.82936V11.8831C9.74823 11.9276 9.99584 11.9276 10.2373 11.8831V8.82936H9.50673ZM11.6205 10.8937V10.2244H10.8905V11.6306C11.1947 11.4523 11.4467 11.1971 11.6211 10.8906L11.6205 10.8937Z" fill="white"/>
</svg>
