<svg xmlns="http://www.w3.org/2000/svg" width="18" height="18" viewBox="0 0 18 18" fill="none">
<defs>
<clipPath id="dashel">
<path d="M0 0H10V18H0ZM10 0H18V8H10Z"/>
</clipPath>
</defs>
<path clip-path="url(#dashel)" fill-rule="evenodd" clip-rule="evenodd" d="M16 3.6C16 2.7 15.3 2 14.4 2H3.6C2.7 2 2 2.7 2 3.6V14.5C2 15.3 2.7 16 3.6 16H14.5C15.4 16 16.1 15.3 16.1 14.4V3.6H16ZM14 14H4V4H14V14ZM5 10H9V13H5V10ZM10 5H13V7H10V5ZM5 5H9V9H5V5ZM10 8H13V13H10V8Z" fill="#4285f4"/>
<path d="M12.6 9.4H18V10.9H14.2V12.9H17.6V14.4H14.2V16.4H18V18H12.6V9.4Z" fill="#4285f4"/>
</svg>