<svg width="20" height="20" viewBox="0 0 20 20" fill="none" xmlns="http://www.w3.org/2000/svg">
<g clip-path="url(#clip0_7851_63147)">
<path opacity="0.3" d="M4.16797 4.16406V15.8307H11.668V11.6641H15.8346V4.16406H4.16797ZM10.0013 11.6641H5.83464V9.9974H10.0013V11.6641ZM14.168 8.33073H5.83464V6.66406H14.168V8.33073Z" fill="#0E4DCA" fill-opacity="0.7"/>
<path d="M15.8333 4.16667V11.6667H11.6667V15.8333H4.16667V4.16667H15.8333ZM15.8333 2.5H4.16667C3.25 2.5 2.5 3.25 2.5 4.16667V15.8333C2.5 16.75 3.25 17.5 4.16667 17.5H12.5L17.5 12.5V4.16667C17.5 3.25 16.75 2.5 15.8333 2.5ZM10 11.6667H5.83333V10H10V11.6667ZM14.1667 8.33333H5.83333V6.66667H14.1667V8.33333Z" fill="#0E4DCA" fill-opacity="0.7"/>
</g>
<defs>
<clipPath id="clip0_7851_63147">
<rect width="20" height="20" fill="white"/>
</clipPath>
</defs>
</svg>
