<svg width="20" height="20" viewBox="0 0 20 20" fill="none" xmlns="http://www.w3.org/2000/svg">
<g clip-path="url(#clip0_7851_63159)">
<path opacity="0.3" d="M3.33594 5.82917H16.6693V3.3125L3.33594 3.32917V5.82917Z" fill="#0E4DCA" fill-opacity="0.7"/>
<path opacity="0.3" d="M4.16797 16.6667H15.8346V7.5H4.16797V16.6667ZM7.5013 10H12.5013V11.6667H7.5013V10Z" fill="#0E4DCA" fill-opacity="0.7"/>
<path d="M16.668 1.66406H3.33464C2.5013 1.66406 1.66797 2.41406 1.66797 3.33073V5.83906C1.66797 6.43906 2.0263 6.95573 2.5013 7.2474V16.6641C2.5013 17.5807 3.41797 18.3307 4.16797 18.3307H15.8346C16.5846 18.3307 17.5013 17.5807 17.5013 16.6641V7.2474C17.9763 6.95573 18.3346 6.43906 18.3346 5.83906V3.33073C18.3346 2.41406 17.5013 1.66406 16.668 1.66406ZM15.8346 16.6641H4.16797V7.4974H15.8346V16.6641ZM16.668 5.83073H3.33464V3.33073L16.668 3.31406V5.83073Z" fill="#0E4DCA" fill-opacity="0.7"/>
<path d="M12.5 10H7.5V11.6667H12.5V10Z" fill="#0E4DCA" fill-opacity="0.7"/>
</g>
<defs>
<clipPath id="clip0_7851_63159">
<rect width="20" height="20" fill="white"/>
</clipPath>
</defs>
</svg>
