<svg width="20" height="20" viewBox="0 0 20 20" fill="none" xmlns="http://www.w3.org/2000/svg">
<g clip-path="url(#clip0_7851_63176)">
<path opacity="0.3" d="M10.0013 3.57812L14.9263 6.31146L12.418 7.70312C11.8096 7.06979 10.9513 6.66979 10.0013 6.66979C9.0513 6.66979 8.19297 7.06979 7.58464 7.70312L5.0763 6.31146L10.0013 3.57812ZM9.16797 15.9698L4.16797 13.1948V7.71979L6.7763 9.16979C6.7013 9.42812 6.66797 9.71146 6.66797 10.0031C6.66797 11.5531 7.7263 12.8615 9.16797 13.2281V15.9698ZM8.33464 10.0031C8.33464 9.08646 9.08464 8.33646 10.0013 8.33646C10.918 8.33646 11.668 9.08646 11.668 10.0031C11.668 10.9198 10.918 11.6698 10.0013 11.6698C9.08464 11.6698 8.33464 10.9198 8.33464 10.0031ZM10.8346 15.9698V13.2365C12.2763 12.8698 13.3346 11.5615 13.3346 10.0115C13.3346 9.71979 13.3013 9.43646 13.2263 9.16979L15.8346 7.71979V13.1948L10.8346 15.9698Z" fill="#0E4DCA" fill-opacity="0.7"/>
<path d="M17.5 5.83073L10 1.66406L2.5 5.83073V14.1641L10 18.3307L17.5 14.1641V5.83073ZM10 3.5724L14.925 6.30573L12.4167 7.6974C11.8083 7.06406 10.95 6.66406 10 6.66406C9.05 6.66406 8.19167 7.06406 7.58333 7.6974L5.075 6.30573L10 3.5724ZM9.16667 15.9641L4.16667 13.1891V7.71406L6.775 9.16406C6.7 9.4224 6.66667 9.70573 6.66667 9.9974C6.66667 11.5474 7.725 12.8557 9.16667 13.2224V15.9641ZM8.33333 9.9974C8.33333 9.08073 9.08333 8.33073 10 8.33073C10.9167 8.33073 11.6667 9.08073 11.6667 9.9974C11.6667 10.9141 10.9167 11.6641 10 11.6641C9.08333 11.6641 8.33333 10.9141 8.33333 9.9974ZM10.8333 15.9641V13.2307C12.275 12.8641 13.3333 11.5557 13.3333 10.0057C13.3333 9.71406 13.3 9.43073 13.225 9.16406L15.8333 7.71406V13.1891L10.8333 15.9641Z" fill="#0E4DCA" fill-opacity="0.7"/>
</g>
<defs>
<clipPath id="clip0_7851_63176">
<rect width="20" height="20" fill="white"/>
</clipPath>
</defs>
</svg>
