<svg width="20" height="20" viewBox="0 0 20 20" fill="none" xmlns="http://www.w3.org/2000/svg">
<g clip-path="url(#clip0_7851_63188)">
<path opacity="0.3" d="M7.64036 5H3.33203V15H16.6654V6.66667H9.30703L7.64036 5Z" fill="#0E4DCA" fill-opacity="0.7"/>
<path d="M16.668 5.0026H10.0013L8.33464 3.33594H3.33464C2.41797 3.33594 1.6763 4.08594 1.6763 5.0026L1.66797 15.0026C1.66797 15.9193 2.41797 16.6693 3.33464 16.6693H16.668C17.5846 16.6693 18.3346 15.9193 18.3346 15.0026V6.66927C18.3346 5.7526 17.5846 5.0026 16.668 5.0026ZM16.668 15.0026H3.33464V5.0026H7.64297L9.30964 6.66927H16.668V15.0026ZM14.5846 10.1026V12.9193H12.0846V8.7526H13.2346L14.5846 10.1026ZM13.7513 7.5026H10.8346V14.1693H15.8346V9.58594L13.7513 7.5026Z" fill="#0E4DCA" fill-opacity="0.7"/>
</g>
<defs>
<clipPath id="clip0_7851_63188">
<rect width="20" height="20" fill="white"/>
</clipPath>
</defs>
</svg>
