<svg width="140" height="39" viewBox="0 0 140 39" fill="none" xmlns="http://www.w3.org/2000/svg">
<path d="M33.7831 28.0894C33.7197 28.1003 33.6467 28.1258 33.5918 28.1585C33.3999 28.273 33.1679 28.4197 32.97 28.5363C32.06 29.0737 31.1552 29.608 30.2448 30.1424C28.4279 31.2085 26.6296 32.2613 24.8366 33.3209C23.9848 33.8246 23.1834 34.2811 22.3403 34.7745C21.2474 35.4145 20.1602 36.1153 19.0349 36.6811C19.016 36.6907 19.016 36.7556 18.9457 36.7742C18.7302 36.8306 18.7458 36.7105 18.6877 36.6811C17.9029 36.2855 17.1648 35.8339 16.4098 35.3932C15.0605 34.6052 13.733 33.8024 12.3571 32.9923C11.9978 32.7806 11.6421 32.629 11.3175 32.3762C11.3211 32.2866 11.4422 32.1903 11.4672 32.1432C11.7761 31.5561 12.1201 30.9436 12.4867 30.3936C12.5307 30.3278 12.6538 30.0286 12.7104 30.0291C12.7867 30.0904 12.8799 30.1226 12.9643 30.1702C14.2652 30.902 15.5326 31.7834 16.8192 32.5452C16.9226 32.6063 17.3287 32.8778 17.3287 32.7408V24.9078C17.8261 25.0304 18.3462 25.0956 18.8816 25.0956C19.0501 25.0956 19.2173 25.089 19.3825 25.0764C19.5456 25.0659 19.7139 25.0497 19.8908 25.0281C19.9368 25.0226 19.9816 25.0092 20.0269 24.9943C20.1266 24.9765 20.2255 24.9565 20.3235 24.934C20.3464 24.9359 20.3698 24.9398 20.3939 24.9463V32.8008L29.1438 27.4641L23.2697 23.4459C23.2596 23.4289 23.2541 23.4118 23.2522 23.3945C23.4785 23.1867 23.6899 22.963 23.8846 22.7251C23.9426 22.6703 23.9883 22.625 24.0106 22.5971C24.1844 22.3809 24.3444 22.1222 24.4859 21.8546C24.6218 21.6182 24.7432 21.3724 24.849 21.1185C24.8676 21.0947 24.8853 21.0635 24.8886 21.0211C24.8981 20.997 24.9077 20.9728 24.9169 20.9485L30.718 24.7443V16.608H33.7831V28.0894Z" fill="#0E4DCA"/>
<path fill-rule="evenodd" clip-rule="evenodd" d="M12.8544 20.97C13.2278 21.9344 13.8265 22.7867 14.5861 23.4627C14.5574 23.4777 14.5458 23.513 14.5114 23.5335C13.6531 24.0467 12.821 24.6677 11.9505 25.2548C11.2096 25.7548 10.3723 26.2371 9.67904 26.7315C9.64907 26.7528 9.50842 26.8669 9.43174 26.9326C9.4598 27.1159 9.47437 27.3036 9.47437 27.4947C9.47437 29.5324 7.82041 31.1843 5.78015 31.1843C3.7399 31.1843 2.08594 29.5324 2.08594 27.4947C2.08594 25.4571 3.7399 23.8052 5.78015 23.8052C6.51681 23.8052 7.2031 24.0205 7.77937 24.3917C7.90773 24.2629 8.10639 24.1674 8.26354 24.0609C9.67017 23.1044 11.0469 22.1266 12.4745 21.2278C12.5999 21.149 12.7146 21.0361 12.8544 20.97ZM5.78015 26.1035C5.01088 26.1035 4.38726 26.7264 4.38726 27.4947C4.38726 28.263 5.01088 28.8859 5.78015 28.8859C6.54943 28.8859 7.17306 28.263 7.17306 27.4947C7.17306 26.7264 6.54943 26.1035 5.78015 26.1035Z" fill="#0E4DCA"/>
<path d="M17.8399 15.1601C18.135 15.0959 19.4258 14.9657 19.6974 15.0919C19.8226 15.1499 19.8085 15.1254 19.928 15.1612C20.878 15.4475 21.8268 16.2113 22.2224 17.2004C22.4958 17.8834 22.6201 18.6379 22.449 19.4475C22.2446 20.4129 21.3936 21.5459 20.4072 21.9403C19.6555 22.2406 18.806 22.3693 17.9211 22.1677C17.8911 22.1608 17.8968 22.0952 17.8661 22.0883C17.032 21.9052 16.2015 21.2467 15.7508 20.4298C15.3278 19.6624 15.1501 18.7734 15.3544 17.8399C15.5749 16.8331 16.4716 15.6039 17.5415 15.3193C17.5601 15.3145 17.8213 15.1641 17.8399 15.1601Z" fill="#0E4DCA"/>
<path d="M18.7777 0.553955C18.9933 0.497503 18.9777 0.617637 19.0357 0.647084C20.3277 1.29829 21.5712 2.12209 22.8293 2.85958C23.0791 3.00637 23.4971 3.17777 23.7292 3.33058C24.5953 3.90115 25.6292 4.45559 26.515 5.0072C26.5905 5.05438 26.6821 5.10114 26.7661 5.13058L25.2541 7.50721L20.3943 4.52574V12.3702C20.3096 12.3499 20.2242 12.3314 20.1383 12.3144C20.1222 12.3086 20.1063 12.3039 20.0899 12.3015C20.0636 12.2978 20.0373 12.2941 20.011 12.2906C19.6442 12.226 19.2668 12.1923 18.8816 12.1923C18.3465 12.1923 17.8267 12.2573 17.3296 12.3797V4.58622C17.3296 4.38058 16.9759 4.74267 16.9541 4.75558C14.3455 6.32735 11.6517 7.91648 9.12957 9.54752C9.04558 9.55439 8.63056 9.77616 8.61804 9.82777C8.59746 9.90357 8.65761 9.93421 8.70202 9.97293C8.8183 10.0749 9.05327 10.1911 9.19175 10.2862C10.9371 11.4867 12.5848 12.6088 14.3339 13.7891C14.3946 13.8301 14.4941 13.8418 14.53 13.8758C13.775 14.5634 13.184 15.4274 12.8223 16.4025L7.0043 12.5419V20.7991H3.89914V9.23864C4.04004 9.25356 4.1301 9.13099 4.2165 9.0818C5.83467 8.15922 7.41411 7.2455 9.03108 6.29631C10.531 5.41607 12.1294 4.45559 13.666 3.55559C15.2855 2.6072 17.011 1.49062 18.6885 0.647084C18.7075 0.637411 18.7075 0.572513 18.7777 0.553955Z" fill="#0E4DCA"/>
<path fill-rule="evenodd" clip-rule="evenodd" d="M32.2251 6.1842C34.2653 6.1842 35.9193 7.83605 35.9193 9.87372C35.9193 11.9113 34.2653 13.5633 32.2251 13.5633C31.4728 13.5633 30.7731 13.3386 30.1894 12.953C30.1379 13.0179 30.0563 13.0182 29.9819 13.0657C28.4872 14.0222 27.0116 15.0887 25.4907 16.1004C25.3457 16.1968 25.1907 16.3028 25.0608 16.4209C25.0063 16.4237 24.9688 16.4189 24.943 16.4085C24.9219 16.3515 24.9 16.2949 24.8773 16.2387C24.8756 16.2246 24.8732 16.2103 24.8693 16.1959C24.8679 16.1905 24.8515 16.1636 24.832 16.1287C24.5861 15.5494 24.2581 15.0133 23.8622 14.5353C23.8211 14.4844 23.7799 14.4345 23.7385 14.3858C23.7299 14.3756 23.715 14.3607 23.696 14.3426C23.5803 14.2132 23.4592 14.0886 23.3333 13.969C23.3032 13.8124 23.5141 13.8158 23.5672 13.7773C25.083 12.675 26.7306 11.635 28.2833 10.5927C28.382 10.5267 28.4635 10.4338 28.5637 10.3669C28.542 10.2056 28.5308 10.041 28.5308 9.87372C28.5308 7.83607 30.1848 6.18421 32.2251 6.1842ZM32.2251 8.4826C31.4558 8.48261 30.8321 9.10543 30.8321 9.87372C30.8321 10.642 31.4558 11.2649 32.2251 11.2649C32.9943 11.2649 33.618 10.6421 33.618 9.87372C33.618 9.10543 32.9943 8.4826 32.2251 8.4826Z" fill="#0E4DCA"/>
<path d="M100.481 33.3948C101.327 33.3948 102.018 33.0899 102.553 32.4801C103.113 31.8703 103.393 31.0739 103.393 30.0907C103.393 29.1325 103.113 28.3423 102.553 27.7201C102.005 27.0979 101.315 26.7867 100.481 26.7867C99.6596 26.7867 98.9689 27.0979 98.4089 27.7201C97.8489 28.3423 97.5689 29.1325 97.5689 30.0907C97.5689 31.0614 97.8489 31.8516 98.4089 32.4614C98.9689 33.0836 99.6596 33.3948 100.481 33.3948ZM100.425 38.9947C99.9147 38.9947 99.4356 38.9263 98.9876 38.7894C98.5396 38.665 98.1289 38.4845 97.7556 38.2481C97.3947 38.0116 97.0836 37.7316 96.8222 37.4081C96.5609 37.0845 96.3618 36.7236 96.2249 36.3254L97.8489 35.6534C98.0356 36.1885 98.3591 36.6179 98.8196 36.9414C99.28 37.265 99.8151 37.4268 100.425 37.4268C101.358 37.4268 102.086 37.1467 102.609 36.5867C103.132 36.0267 103.393 35.2552 103.393 34.2721V33.3948H103.318C102.995 33.8801 102.553 34.2659 101.993 34.5521C101.445 34.8259 100.848 34.9628 100.201 34.9628C99.0062 34.9628 97.9796 34.4961 97.1209 33.5627C96.2747 32.6045 95.8516 31.4472 95.8516 30.0907C95.8516 28.7343 96.2747 27.5832 97.1209 26.6374C97.9796 25.6916 99.0062 25.2188 100.201 25.2188C100.848 25.2188 101.445 25.3619 101.993 25.6481C102.553 25.9219 102.995 26.3014 103.318 26.7867H103.393V25.5174H105.036V34.2721C105.036 35.7405 104.619 36.8916 103.785 37.7254C102.939 38.5716 101.819 38.9947 100.425 38.9947Z" fill="#0E4DCA"/>
<path d="M85.4062 30.0907C85.4062 28.6845 85.848 27.521 86.7316 26.6001C87.6276 25.6792 88.7538 25.2188 90.1102 25.2188C91.4667 25.2188 92.5867 25.6792 93.4703 26.6001C94.3663 27.521 94.8143 28.6845 94.8143 30.0907C94.8143 31.5094 94.3663 32.673 93.4703 33.5814C92.5867 34.5023 91.4667 34.9628 90.1102 34.9628C88.7538 34.9628 87.6276 34.5023 86.7316 33.5814C85.848 32.6605 85.4062 31.497 85.4062 30.0907ZM87.1236 30.0907C87.1236 31.0739 87.4098 31.8703 87.9823 32.4801C88.5547 33.0899 89.264 33.3948 90.1102 33.3948C90.9565 33.3948 91.6658 33.0899 92.2383 32.4801C92.8107 31.8703 93.0969 31.0739 93.0969 30.0907C93.0969 29.1201 92.8107 28.3299 92.2383 27.7201C91.6534 27.0979 90.944 26.7867 90.1102 26.7867C89.2765 26.7867 88.5671 27.0979 87.9823 27.7201C87.4098 28.3299 87.1236 29.1201 87.1236 30.0907Z" fill="#0E4DCA"/>
<path d="M83.9283 21.2969V34.6622H82.2109V21.2969H83.9283Z" fill="#0E4DCA"/>
<path d="M73.9452 31.8641C73.9452 32.3121 74.1319 32.6854 74.5052 32.9841C74.891 33.2827 75.339 33.4321 75.8492 33.4321C76.571 33.4321 77.2119 33.1645 77.7719 32.6294C78.3443 32.0943 78.6305 31.4659 78.6305 30.7441C78.0954 30.321 77.3488 30.1094 76.3905 30.1094C75.6937 30.1094 75.1088 30.2774 74.6359 30.6134C74.1754 30.9494 73.9452 31.3663 73.9452 31.8641ZM76.1665 25.2188C77.4359 25.2188 78.4377 25.561 79.1719 26.2454C79.9061 26.9174 80.2732 27.8445 80.2732 29.0267V34.6641H78.6305V33.3948H78.5559C77.8465 34.4401 76.9008 34.9628 75.7185 34.9628C74.7105 34.9628 73.8643 34.6641 73.1799 34.0667C72.5079 33.4694 72.1719 32.7227 72.1719 31.8267C72.1719 30.881 72.5265 30.1281 73.2359 29.5681C73.9577 29.0081 74.9159 28.7281 76.1105 28.7281C77.131 28.7281 77.971 28.9148 78.6305 29.2881V28.8961C78.6305 28.2987 78.3941 27.7947 77.9212 27.3841C77.4483 26.961 76.8945 26.7494 76.2599 26.7494C75.3017 26.7494 74.5425 27.1539 73.9825 27.9627L72.4705 27.0107C73.3043 25.8161 74.5363 25.2188 76.1665 25.2188Z" fill="#0E4DCA"/>
<path d="M69.9062 34.8148C69.1595 34.8148 68.5373 34.5845 68.0395 34.1241C67.5542 33.6636 67.3053 33.0228 67.2928 32.2014V27.0868H65.6875V25.5188H67.2928V22.7188H69.0102V25.5188H71.2502V27.0868H69.0102V31.6414C69.0102 32.2512 69.1284 32.6681 69.3648 32.8921C69.6013 33.1036 69.8688 33.2094 70.1675 33.2094C70.3044 33.2094 70.4351 33.197 70.5595 33.1721C70.6964 33.1348 70.8208 33.0912 70.9328 33.0414L71.4742 34.5721C71.0262 34.7339 70.5035 34.8148 69.9062 34.8148Z" fill="#0E4DCA"/>
<path d="M58.1952 31.8641C58.1952 32.3121 58.3819 32.6854 58.7552 32.9841C59.141 33.2827 59.589 33.4321 60.0992 33.4321C60.821 33.4321 61.4619 33.1645 62.0219 32.6294C62.5943 32.0943 62.8805 31.4659 62.8805 30.7441C62.3454 30.321 61.5988 30.1094 60.6405 30.1094C59.9437 30.1094 59.3588 30.2774 58.8859 30.6134C58.4254 30.9494 58.1952 31.3663 58.1952 31.8641ZM60.4165 25.2188C61.6859 25.2188 62.6877 25.561 63.4219 26.2454C64.1561 26.9174 64.5232 27.8445 64.5232 29.0267V34.6641H62.8805V33.3948H62.8059C62.0965 34.4401 61.1508 34.9628 59.9685 34.9628C58.9605 34.9628 58.1143 34.6641 57.4299 34.0667C56.7579 33.4694 56.4219 32.7227 56.4219 31.8267C56.4219 30.881 56.7765 30.1281 57.4859 29.5681C58.2077 29.0081 59.1659 28.7281 60.3605 28.7281C61.381 28.7281 62.221 28.9148 62.8805 29.2881V28.8961C62.8805 28.2987 62.6441 27.7947 62.1712 27.3841C61.6983 26.961 61.1445 26.7494 60.5099 26.7494C59.5517 26.7494 58.7925 27.1539 58.2325 27.9627L56.7205 27.0107C57.5543 25.8161 58.7863 25.2188 60.4165 25.2188Z" fill="#0E4DCA"/>
<path d="M50.3034 34.9627C48.3247 34.9627 46.6696 34.2969 45.338 32.9653C44.0189 31.6338 43.3594 29.9724 43.3594 27.9813C43.3594 25.9902 44.0189 24.3351 45.338 23.016C46.6572 21.672 48.3123 21 50.3034 21C52.3194 21 53.9558 21.728 55.2127 23.184L53.9807 24.3787C53.0225 23.2213 51.7967 22.6427 50.3034 22.6427C48.8225 22.6427 47.5843 23.1404 46.5887 24.136C45.6056 25.1191 45.114 26.4009 45.114 27.9813C45.114 29.5618 45.6056 30.8436 46.5887 31.8267C47.5843 32.8222 48.8225 33.32 50.3034 33.32C51.8589 33.32 53.2092 32.6667 54.354 31.36L55.6047 32.5733C54.97 33.3324 54.1923 33.9236 53.2714 34.3467C52.3505 34.7573 51.3612 34.9627 50.3034 34.9627Z" fill="#0E4DCA"/>
<path d="M138.231 13.7974C137.808 14.544 137.235 15.1476 136.514 15.608C135.804 16.0685 134.933 16.2987 133.9 16.2987C133.203 16.2987 132.556 16.1805 131.959 15.944C131.374 15.6951 130.864 15.3529 130.428 14.9174C129.993 14.4818 129.65 13.9716 129.402 13.3867C129.165 12.7894 129.047 12.136 129.047 11.4267C129.047 10.7671 129.165 10.1449 129.402 9.56002C129.638 8.96269 129.968 8.44624 130.391 8.01069C130.814 7.56269 131.312 7.20802 131.884 6.94669C132.469 6.68535 133.11 6.55469 133.807 6.55469C134.541 6.55469 135.194 6.67913 135.767 6.92802C136.339 7.16447 136.818 7.50047 137.204 7.93602C137.59 8.35913 137.882 8.86313 138.082 9.44802C138.281 10.0329 138.38 10.6676 138.38 11.352C138.38 11.4391 138.38 11.5138 138.38 11.576C138.368 11.6507 138.362 11.7191 138.362 11.7814C138.349 11.8436 138.343 11.912 138.343 11.9867H131.455C131.505 12.36 131.604 12.6836 131.754 12.9574C131.915 13.2187 132.108 13.4427 132.332 13.6294C132.569 13.8036 132.824 13.9342 133.098 14.0214C133.371 14.096 133.651 14.1334 133.938 14.1334C134.498 14.1334 134.958 14.0089 135.319 13.76C135.692 13.4987 135.985 13.1751 136.196 12.7894L138.231 13.7974ZM136.01 10.2507C135.997 10.0889 135.941 9.90847 135.842 9.70935C135.754 9.51024 135.618 9.32358 135.431 9.14935C135.257 8.97513 135.033 8.83202 134.759 8.72002C134.498 8.60802 134.18 8.55202 133.807 8.55202C133.284 8.55202 132.824 8.70135 132.426 9.00002C132.027 9.29869 131.747 9.71558 131.586 10.2507H136.01Z" fill="#0E4DCA"/>
<path d="M122.741 20.3307C122.094 20.3307 121.516 20.2436 121.005 20.0694C120.508 19.9076 120.072 19.6898 119.699 19.416C119.325 19.1547 119.014 18.8622 118.765 18.5387C118.516 18.2151 118.336 17.8916 118.224 17.568L120.557 16.6347C120.732 17.12 121.018 17.4934 121.416 17.7547C121.814 18.0285 122.256 18.1654 122.741 18.1654C123.513 18.1654 124.123 17.9227 124.571 17.4374C125.019 16.9645 125.243 16.2987 125.243 15.44V14.8054H125.093C124.807 15.2036 124.428 15.5209 123.955 15.7574C123.494 15.9814 122.947 16.0934 122.312 16.0934C121.764 16.0934 121.229 15.9814 120.707 15.7574C120.196 15.5334 119.742 15.216 119.344 14.8054C118.946 14.3822 118.622 13.8782 118.373 13.2934C118.124 12.7085 118 12.0551 118 11.3334C118 10.6116 118.124 9.95824 118.373 9.37335C118.622 8.77602 118.946 8.27202 119.344 7.86135C119.742 7.43824 120.196 7.11469 120.707 6.89069C121.229 6.66669 121.764 6.55469 122.312 6.55469C122.947 6.55469 123.494 6.67291 123.955 6.90935C124.428 7.13335 124.807 7.44447 125.093 7.84269H125.243V6.85335H127.576V15.3467C127.576 16.1182 127.458 16.8089 127.221 17.4187C126.985 18.0409 126.655 18.5636 126.232 18.9867C125.809 19.4222 125.299 19.752 124.701 19.976C124.116 20.2125 123.463 20.3307 122.741 20.3307ZM122.835 13.8907C123.133 13.8907 123.426 13.8347 123.712 13.7227C124.011 13.6107 124.272 13.4489 124.496 13.2374C124.72 13.0134 124.9 12.7458 125.037 12.4347C125.174 12.1111 125.243 11.744 125.243 11.3334C125.243 10.9227 125.174 10.5556 125.037 10.232C124.9 9.90847 124.72 9.64091 124.496 9.42935C124.272 9.20535 124.011 9.03735 123.712 8.92535C123.426 8.81335 123.133 8.75735 122.835 8.75735C122.536 8.75735 122.244 8.81335 121.957 8.92535C121.671 9.03735 121.416 9.20535 121.192 9.42935C120.968 9.65335 120.788 9.92713 120.651 10.2507C120.514 10.5618 120.445 10.9227 120.445 11.3334C120.445 11.744 120.514 12.1111 120.651 12.4347C120.788 12.7458 120.968 13.0134 121.192 13.2374C121.416 13.4489 121.671 13.6107 121.957 13.7227C122.244 13.8347 122.536 13.8907 122.835 13.8907Z" fill="#0E4DCA"/>
<path d="M114.234 14.8968H114.085C113.861 15.2826 113.513 15.6124 113.04 15.8861C112.567 16.1599 111.982 16.2968 111.285 16.2968C110.7 16.2968 110.14 16.1786 109.605 15.9421C109.082 15.6933 108.616 15.3573 108.205 14.9341C107.807 14.4986 107.49 13.9821 107.253 13.3848C107.017 12.7875 106.898 12.1341 106.898 11.4248C106.898 10.7155 107.017 10.0621 107.253 9.46481C107.49 8.86748 107.807 8.35726 108.205 7.93415C108.616 7.49859 109.082 7.16259 109.605 6.92615C110.14 6.67726 110.7 6.55281 111.285 6.55281C111.982 6.55281 112.567 6.6897 113.04 6.96348C113.513 7.23726 113.861 7.56703 114.085 7.95281H114.234L114.085 6.64614V2.63281H116.53V15.9981H114.234V14.8968ZM111.789 14.0381C112.113 14.0381 112.418 13.9821 112.704 13.8701C113.002 13.7457 113.264 13.5715 113.488 13.3475C113.712 13.1235 113.892 12.8497 114.029 12.5261C114.166 12.2026 114.234 11.8355 114.234 11.4248C114.234 11.0141 114.166 10.647 114.029 10.3235C113.892 9.99992 113.712 9.72615 113.488 9.50215C113.264 9.27815 113.002 9.11015 112.704 8.99815C112.418 8.8737 112.113 8.81148 111.789 8.81148C111.466 8.81148 111.154 8.8737 110.856 8.99815C110.57 9.12259 110.314 9.29681 110.09 9.52081C109.866 9.74481 109.686 10.0186 109.549 10.3421C109.412 10.6657 109.344 11.0266 109.344 11.4248C109.344 11.823 109.412 12.1839 109.549 12.5075C109.686 12.831 109.866 13.1048 110.09 13.3288C110.314 13.5528 110.57 13.727 110.856 13.8515C111.154 13.9759 111.466 14.0381 111.789 14.0381Z" fill="#0E4DCA"/>
<path d="M105.622 13.7974C105.198 14.544 104.626 15.1476 103.904 15.608C103.195 16.0685 102.324 16.2987 101.291 16.2987C100.594 16.2987 99.9468 16.1805 99.3495 15.944C98.7646 15.6951 98.2544 15.3529 97.8188 14.9174C97.3833 14.4818 97.0411 13.9716 96.7922 13.3867C96.5557 12.7894 96.4375 12.136 96.4375 11.4267C96.4375 10.7671 96.5557 10.1449 96.7922 9.56002C97.0286 8.96269 97.3584 8.44624 97.7815 8.01069C98.2046 7.56269 98.7024 7.20802 99.2748 6.94669C99.8597 6.68535 100.501 6.55469 101.198 6.55469C101.932 6.55469 102.585 6.67913 103.158 6.92802C103.73 7.16447 104.209 7.50047 104.595 7.93602C104.981 8.35913 105.273 8.86313 105.472 9.44802C105.671 10.0329 105.771 10.6676 105.771 11.352C105.771 11.4391 105.771 11.5138 105.771 11.576C105.758 11.6507 105.752 11.7191 105.752 11.7814C105.74 11.8436 105.734 11.912 105.734 11.9867H98.8455C98.8953 12.36 98.9948 12.6836 99.1442 12.9574C99.3059 13.2187 99.4988 13.4427 99.7228 13.6294C99.9593 13.8036 100.214 13.9342 100.488 14.0214C100.762 14.096 101.042 14.1334 101.328 14.1334C101.888 14.1334 102.349 14.0089 102.71 13.76C103.083 13.4987 103.375 13.1751 103.587 12.7894L105.622 13.7974ZM103.4 10.2507C103.388 10.0889 103.332 9.90847 103.232 9.70935C103.145 9.51024 103.008 9.32358 102.822 9.14935C102.647 8.97513 102.423 8.83202 102.15 8.72002C101.888 8.60802 101.571 8.55202 101.198 8.55202C100.675 8.55202 100.214 8.70135 99.8162 9.00002C99.4179 9.29869 99.1379 9.71558 98.9762 10.2507H103.4Z" fill="#0E4DCA"/>
<path d="M92.5156 15.9981V2.63281H94.961V15.9981H92.5156Z" fill="#0E4DCA"/>
<path d="M76.5234 6.85156H79.2674L80.7794 12.5822H80.9101L82.7208 6.85156H85.2408L87.0701 12.5822H87.2008L88.6941 6.85156H91.4008L88.4701 15.9982H85.8381L84.0088 10.2302H83.8781L82.0488 15.9982H79.4541L76.5234 6.85156Z" fill="#0E4DCA"/>
<path d="M71.2518 6.55469C71.9611 6.55469 72.6082 6.67913 73.1931 6.92802C73.7904 7.16447 74.3007 7.50047 74.7238 7.93602C75.1593 8.35913 75.4953 8.86935 75.7318 9.46669C75.9807 10.064 76.1051 10.7174 76.1051 11.4267C76.1051 12.136 75.9807 12.7894 75.7318 13.3867C75.4953 13.984 75.1593 14.5005 74.7238 14.936C74.3007 15.3591 73.7904 15.6951 73.1931 15.944C72.6082 16.1805 71.9611 16.2987 71.2518 16.2987C70.5424 16.2987 69.8891 16.1805 69.2918 15.944C68.7069 15.6951 68.1967 15.3591 67.7611 14.936C67.338 14.5005 67.002 13.984 66.7531 13.3867C66.5167 12.7894 66.3984 12.136 66.3984 11.4267C66.3984 10.7174 66.5167 10.064 66.7531 9.46669C67.002 8.86935 67.338 8.35913 67.7611 7.93602C68.1967 7.50047 68.7069 7.16447 69.2918 6.92802C69.8891 6.67913 70.5424 6.55469 71.2518 6.55469ZM71.2518 14.04C71.5629 14.04 71.8615 13.984 72.1478 13.872C72.4464 13.7476 72.7078 13.5734 72.9318 13.3494C73.1558 13.1254 73.33 12.8516 73.4544 12.528C73.5913 12.2045 73.6598 11.8374 73.6598 11.4267C73.6598 11.016 73.5913 10.6489 73.4544 10.3254C73.33 10.0018 73.1558 9.72802 72.9318 9.50402C72.7078 9.28002 72.4464 9.11202 72.1478 9.00002C71.8615 8.87558 71.5629 8.81335 71.2518 8.81335C70.9282 8.81335 70.6233 8.87558 70.3371 9.00002C70.0509 9.11202 69.7958 9.28002 69.5718 9.50402C69.3478 9.72802 69.1673 10.0018 69.0304 10.3254C68.906 10.6489 68.8438 11.016 68.8438 11.4267C68.8438 11.8374 68.906 12.2045 69.0304 12.528C69.1673 12.8516 69.3478 13.1254 69.5718 13.3494C69.7958 13.5734 70.0509 13.7476 70.3371 13.872C70.6233 13.984 70.9282 14.04 71.2518 14.04Z" fill="#0E4DCA"/>
<path d="M58.4991 8.04802H58.6485C58.9347 7.58758 59.3205 7.22669 59.8058 6.96535C60.2911 6.69158 60.8449 6.55469 61.4671 6.55469C62.0396 6.55469 62.5436 6.64802 62.9791 6.83469C63.4147 7.02135 63.7693 7.28891 64.0431 7.63735C64.3293 7.97335 64.5409 8.38402 64.6778 8.86935C64.8271 9.34224 64.9018 9.87113 64.9018 10.456V16H62.4565V10.7547C62.4565 10.0951 62.3071 9.6098 62.0085 9.29869C61.7222 8.97513 61.2991 8.81335 60.7391 8.81335C60.4031 8.81335 60.1045 8.88802 59.8431 9.03735C59.5942 9.17424 59.3765 9.36713 59.1898 9.61602C59.0156 9.85247 58.8787 10.1387 58.7791 10.4747C58.692 10.7982 58.6485 11.1467 58.6485 11.52V16H56.2031V6.85335H58.4991V8.04802Z" fill="#0E4DCA"/>
<path d="M44.0156 2.63281H46.5356V8.36348H46.685L51.5756 2.63281H54.6183V2.78215L49.7836 8.30748L55.1223 15.8488V15.9981H52.0423L48.0663 10.3048L46.5356 12.0781V15.9981H44.0156V2.63281Z" fill="#0E4DCA"/>
</svg>
