<svg width="16" height="16" viewBox="0 0 16 16" fill="none" xmlns="http://www.w3.org/2000/svg">
<mask id="mask0_7578_110720" style="mask-type:alpha" maskUnits="userSpaceOnUse" x="0" y="0" width="16" height="16">
<rect width="16" height="16" fill="#D9D9D9"/>
</mask>
<g mask="url(#mask0_7578_110720)">
<path d="M5.33203 7.9974V6.66406H3.9987V7.9974H5.33203ZM7.13203 7.9974C7.25425 7.74184 7.39592 7.50295 7.55703 7.28073C7.71814 7.05851 7.8987 6.85295 8.0987 6.66406H6.66536V7.9974H7.13203ZM6.73203 10.6641C6.70981 10.553 6.69592 10.4446 6.69036 10.3391C6.68481 10.2335 6.68203 10.1196 6.68203 9.9974C6.68203 9.87517 6.68481 9.76129 6.69036 9.65573C6.69592 9.55017 6.70981 9.44184 6.73203 9.33073H3.9987V10.6641H6.73203ZM8.08203 13.3307H2.66536C2.2987 13.3307 1.98481 13.2002 1.7237 12.9391C1.46259 12.678 1.33203 12.3641 1.33203 11.9974V3.9974C1.33203 3.63073 1.46259 3.31684 1.7237 3.05573C1.98481 2.79462 2.2987 2.66406 2.66536 2.66406H13.332C13.6987 2.66406 14.0126 2.79462 14.2737 3.05573C14.5348 3.31684 14.6654 3.63073 14.6654 3.9974V6.76406C14.4765 6.56406 14.2709 6.38351 14.0487 6.2224C13.8265 6.06128 13.5876 5.91962 13.332 5.7974V3.9974H2.66536V11.9974H7.13203C7.25425 12.253 7.39314 12.4918 7.5487 12.7141C7.70425 12.9363 7.88203 13.1418 8.08203 13.3307ZM11.9987 13.3307H10.6654L10.4654 12.3307C10.332 12.2752 10.207 12.2168 10.0904 12.1557C9.9737 12.0946 9.85425 12.0196 9.73203 11.9307L8.76536 12.2307L8.0987 11.0974L8.86536 10.4307C8.84314 10.2863 8.83203 10.1418 8.83203 9.9974C8.83203 9.85295 8.84314 9.70851 8.86536 9.56406L8.0987 8.8974L8.76536 7.76406L9.73203 8.06406C9.85425 7.97517 9.9737 7.90017 10.0904 7.83906C10.207 7.77795 10.332 7.71962 10.4654 7.66406L10.6654 6.66406H11.9987L12.1987 7.66406C12.332 7.71962 12.4598 7.78351 12.582 7.85573C12.7043 7.92795 12.8209 8.00851 12.932 8.0974L13.8987 7.76406L14.5654 8.93073L13.7987 9.5974C13.8209 9.74184 13.832 9.88073 13.832 10.0141C13.832 10.1474 13.8209 10.2863 13.7987 10.4307L14.5654 11.0974L13.8987 12.2307L12.932 11.9307C12.8098 12.0196 12.6904 12.0946 12.5737 12.1557C12.457 12.2168 12.332 12.2752 12.1987 12.3307L11.9987 13.3307ZM11.332 11.3307C11.6987 11.3307 12.0126 11.2002 12.2737 10.9391C12.5348 10.678 12.6654 10.3641 12.6654 9.9974C12.6654 9.63073 12.5348 9.31684 12.2737 9.05573C12.0126 8.79462 11.6987 8.66406 11.332 8.66406C10.9654 8.66406 10.6515 8.79462 10.3904 9.05573C10.1293 9.31684 9.9987 9.63073 9.9987 9.9974C9.9987 10.3641 10.1293 10.678 10.3904 10.9391C10.6515 11.2002 10.9654 11.3307 11.332 11.3307Z" fill="#575757"/>
</g>
</svg>
